<svg xmlns="http://www.w3.org/2000/svg" width="24" height="24" viewBox="0 0 240 240" fill="currentColor" aria-hidden="true">
  <path d="M0 0 C0.677 0.002 1.353 0.004 2.05 0.006 C2.439 0.004 2.439 0.004 4.404 -0.003 C5.257 0.004 6.111 0.012 6.989 0.019 C7.887 0.019 8.785 0.018 9.71 0.018 C12.686 0.02 15.661 0.035 18.637 0.051 C20.697 0.055 22.757 0.057 24.817 0.059 C30.245 0.067 35.674 0.087 41.102 0.109 C46.639 0.129 52.175 0.138 57.712 0.148 C68.58 0.17 79.449 0.204 90.317 0.246 C90.699 1.902 91.031 3.571 91.317 5.246 C90.317 6.246 90.317 6.246 88.742 6.369 C88.057 6.368 87.372 6.367 86.666 6.366 C86.274 6.367 86.274 6.367 84.291 6.371 C83.425 6.367 82.559 6.363 81.666 6.36 C81.213 6.36 81.213 6.36 78.917 6.36 C75.903 6.359 72.89 6.352 69.876 6.344 C67.792 6.342 65.708 6.34 63.625 6.339 C58.129 6.336 52.633 6.326 47.137 6.315 C41.534 6.305 35.93 6.3 30.327 6.295 C19.324 6.284 8.32 6.267 -2.683 6.246 C-3.308 4.371 -3.308 4.371 -3.683 2.246 C-1.683 0.246 -1.683 0.246 0 0 Z " transform="translate(88.68289375305176,127.75390434265137)" />
  <path d="M0 0 C0.385 -0.001 0.385 -0.001 2.333 -0.008 C3.173 -0.001 4.013 0.006 4.879 0.013 C5.767 0.013 6.655 0.013 7.57 0.013 C10.508 0.014 13.446 0.03 16.384 0.045 C18.42 0.049 20.456 0.052 22.492 0.054 C27.853 0.061 33.214 0.081 38.575 0.103 C44.044 0.124 49.514 0.133 54.983 0.143 C65.717 0.164 76.451 0.198 87.185 0.241 C87.35 1.066 87.35 1.066 88.185 5.241 C85.872 7.035 84.378 7.492 81.465 7.501 C80.717 7.508 79.968 7.515 79.197 7.523 C78.38 7.52 77.563 7.518 76.722 7.515 C75.858 7.52 74.994 7.525 74.104 7.531 C71.246 7.545 68.387 7.544 65.528 7.541 C63.544 7.545 61.56 7.55 59.576 7.554 C55.417 7.562 51.258 7.561 47.098 7.556 C41.761 7.55 36.425 7.567 31.088 7.591 C26.991 7.605 22.894 7.606 18.797 7.603 C16.829 7.604 14.86 7.609 12.892 7.619 C10.144 7.631 7.396 7.624 4.647 7.613 C3.831 7.62 3.014 7.628 2.173 7.636 C-3.316 7.585 -3.316 7.585 -5.844 5.842 C-6.815 4.241 -6.815 4.241 -6.815 2.241 C-4.595 0.287 -2.904 -0.008 0 0 Z " transform="translate(91.81547546386719,159.75949096679688)" />
  <path d="M0 0 C0.677 0.002 1.353 0.004 2.05 0.006 C2.439 0.004 2.439 0.004 4.404 -0.003 C5.257 0.004 6.111 0.012 6.989 0.019 C7.887 0.019 8.785 0.018 9.71 0.018 C12.686 0.02 15.661 0.035 18.637 0.051 C20.697 0.055 22.757 0.057 24.817 0.059 C30.245 0.067 35.674 0.087 41.102 0.109 C46.639 0.129 52.175 0.138 57.712 0.148 C68.58 0.17 79.449 0.204 90.317 0.246 C90.699 1.902 91.031 3.571 91.317 5.246 C90.317 6.246 90.317 6.246 88.757 6.369 C88.419 6.369 88.419 6.369 86.704 6.366 C85.929 6.368 85.153 6.369 84.354 6.371 C83.498 6.367 82.641 6.363 81.758 6.36 C80.861 6.36 79.963 6.36 79.039 6.36 C76.057 6.359 73.076 6.352 70.094 6.344 C68.033 6.342 65.972 6.34 63.911 6.339 C58.474 6.336 53.037 6.326 47.601 6.315 C42.058 6.305 36.515 6.3 30.971 6.295 C20.087 6.284 9.202 6.267 -1.683 6.246 C-2.343 4.926 -3.003 3.606 -3.683 2.246 C-1.683 0.246 -1.683 0.246 0 0 Z " transform="translate(88.68289375305176,191.75390434265137)" />
</svg>
