<svg xmlns="http://www.w3.org/2000/svg" width="24" height="24" viewBox="0 0 240 240" fill="currentColor" aria-hidden="true">
  <path d="M0 0 C0.825 0.165 0.825 0.165 5 1 C4.66 6.787 3.176 11.433 1.011 16.802 C-1.991 24.333 -4.002 32.134 -6.031 39.973 C-6.118 40.304 -6.118 40.304 -6.554 41.979 C-6.881 43.239 -7.203 44.5 -7.518 45.763 C-8.474 49.47 -9.75 52.86 -11.306 56.355 C-12.271 58.643 -12.893 60.97 -13.5 63.375 C-14.795 68.329 -16.317 73.165 -18 78 C-19.65 77.67 -21.3 77.34 -23 77 C-22.414 71.071 -21.196 65.684 -19.438 60 C-19.204 59.225 -18.97 58.451 -18.729 57.652 C-18.158 55.766 -17.582 53.882 -17 52 C-16.34 52 -15.68 52 -15 52 C-15.165 51.505 -15.165 51.505 -16 49 C-15.569 47.173 -15.569 47.173 -14.789 45.086 C-12.741 39.333 -11.065 33.492 -9.375 27.625 C-8.758 25.492 -8.141 23.359 -7.523 21.227 C-7.389 20.76 -7.389 20.76 -6.708 18.401 C-6.174 16.59 -5.597 14.791 -5 13 C-4.34 13 -3.68 13 -3 13 C-2.951 12.481 -2.902 11.961 -2.852 11.426 C-2.409 7.298 -1.783 3.803 0 0 Z " transform="translate(116,82)" />
  <path d="M0 0 C0.545 0.107 1.091 0.214 1.652 0.324 C1.969 2.988 1.969 2.988 1.652 6.324 C0.002 8.396 -1.463 9.964 -3.41 11.699 C-4.426 12.655 -5.441 13.614 -6.453 14.574 C-6.95 15.04 -7.447 15.505 -7.958 15.984 C-10.431 18.369 -12.616 20.989 -14.844 23.598 C-16.903 25.961 -19.098 28.143 -21.348 30.324 C-20.075 36.866 -15.726 40.365 -11.035 44.824 C-6.208 49.484 -1.52 54.061 2.652 59.324 C1.992 60.644 1.332 61.964 0.652 63.324 C-3.909 62.937 -6.016 59.803 -8.848 56.574 C-9.907 55.396 -10.967 54.217 -12.027 53.039 C-12.299 52.734 -12.299 52.734 -13.675 51.191 C-16.407 48.142 -19.191 45.141 -21.973 42.137 C-22.227 41.861 -22.227 41.861 -23.514 40.464 C-23.987 39.95 -24.461 39.436 -24.949 38.906 C-25.365 38.455 -25.781 38.003 -26.209 37.538 C-27.234 36.446 -28.289 35.383 -29.348 34.324 C-29.058 30.326 -27.784 28.221 -25.098 25.324 C-24.469 24.637 -23.84 23.95 -23.191 23.242 C-21.686 21.676 -20.16 20.146 -18.598 18.637 C-16.348 16.324 -16.348 16.324 -15.047 14.043 C-13.006 10.777 -10.619 8.228 -7.91 5.512 C-7.433 5.01 -6.955 4.508 -6.463 3.99 C-2.903 0.401 -2.903 0.401 0 0 Z " transform="translate(77.34765625,89.67578125)" />
  <path d="M0 0 C3.567 0.573 5.116 1.795 7.539 4.43 C8.198 5.138 8.856 5.846 9.535 6.575 C10.225 7.334 10.914 8.093 11.625 8.875 C12.333 9.644 13.04 10.413 13.77 11.206 C15.19 12.751 16.607 14.298 18.021 15.849 C19.747 17.725 21.498 19.569 23.273 21.398 C23.742 21.888 24.21 22.378 24.693 22.883 C25.915 24.161 27.145 25.433 28.375 26.703 C30.271 29.382 30.364 30.788 30 34 C29.381 34.248 28.762 34.495 28.125 34.75 C26 36 26 36 25.164 37.777 C23.668 40.635 21.557 42.614 19.25 44.812 C8.59 55.23 8.59 55.23 7 60 C4.688 61.812 4.688 61.812 2 63 C-0.312 62.188 -0.312 62.188 -2 61 C-0.537 57.694 1.309 55.344 3.75 52.688 C4.128 52.275 4.505 51.862 4.894 51.436 C6.257 49.951 7.628 48.475 9 47 C9.296 46.682 9.296 46.682 10.792 45.072 C14.851 40.706 18.922 36.349 23 32 C21.379 28.556 19.575 26.393 16.812 23.75 C13.254 20.277 9.942 16.702 6.707 12.93 C3.948 9.811 0.984 6.902 -2 4 C-1.34 2.68 -0.68 1.36 0 0 Z " transform="translate(136,90)" />
</svg>
