<svg xmlns="http://www.w3.org/2000/svg" width="24" height="24" viewBox="0 0 240 240" fill="currentColor" aria-hidden="true">
  <path d="M0 0 C0.293 -0.001 0.293 -0.001 1.776 -0.006 C3.704 -0.009 5.632 0.001 7.56 0.012 C8.914 0.014 10.269 0.014 11.623 0.014 C14.461 0.015 17.3 0.024 20.139 0.037 C23.744 0.054 27.348 0.058 30.953 0.057 C33.753 0.057 36.553 0.063 39.352 0.07 C40.679 0.073 42.006 0.075 43.333 0.076 C67.196 0.104 67.196 0.104 71.619 3.68 C75.283 7.741 75.08 10.683 75.077 15.934 C75.08 16.727 75.083 17.521 75.087 18.339 C75.096 20.971 75.098 23.603 75.099 26.235 C75.103 28.061 75.106 29.887 75.109 31.713 C75.115 35.545 75.117 39.377 75.117 43.208 C75.117 48.12 75.13 53.032 75.147 57.944 C75.159 61.717 75.161 65.489 75.16 69.262 C75.161 71.073 75.166 72.884 75.173 74.695 C75.183 77.228 75.18 79.76 75.174 82.293 C75.18 83.042 75.186 83.792 75.191 84.564 C75.151 91.154 75.151 91.154 72.931 94.243 C66.541 100.01 56.906 98.823 48.9 98.774 C47.339 98.777 45.778 98.781 44.216 98.786 C40.955 98.792 37.694 98.783 34.433 98.764 C30.27 98.742 26.108 98.755 21.946 98.779 C18.725 98.793 15.505 98.789 12.284 98.778 C10.75 98.776 9.216 98.779 7.682 98.788 C-8.944 98.867 -8.944 98.867 -14.069 94.243 C-16.684 90.583 -16.371 86.677 -16.375 82.357 C-16.383 81.566 -16.392 80.775 -16.4 79.961 C-16.424 77.349 -16.433 74.737 -16.44 72.126 C-16.449 70.307 -16.458 68.489 -16.467 66.671 C-16.484 62.859 -16.491 59.048 -16.494 55.237 C-16.5 50.358 -16.537 45.481 -16.583 40.603 C-16.613 36.847 -16.62 33.091 -16.621 29.335 C-16.625 27.537 -16.637 25.739 -16.658 23.941 C-16.685 21.423 -16.68 18.906 -16.668 16.388 C-16.683 15.649 -16.698 14.91 -16.713 14.149 C-16.648 9.509 -15.709 6.806 -12.469 3.424 C-8.648 0.201 -4.838 -0.007 0 0 Z M-10.161 9.699 C-11.819 12.519 -11.746 15.451 -11.684 18.616 C-11.689 19.34 -11.695 20.064 -11.701 20.811 C-11.712 23.195 -11.688 25.577 -11.662 27.962 C-11.661 29.624 -11.661 31.286 -11.662 32.949 C-11.661 36.429 -11.642 39.909 -11.611 43.389 C-11.571 47.845 -11.567 52.299 -11.574 56.755 C-11.577 60.187 -11.565 63.618 -11.548 67.05 C-11.541 68.692 -11.538 70.335 -11.539 71.977 C-11.537 74.275 -11.515 76.572 -11.489 78.87 C-11.491 79.545 -11.494 80.221 -11.497 80.917 C-11.421 85.145 -10.982 88.091 -8.069 91.243 C-5.466 91.761 -3.498 91.928 -0.891 91.89 C-0.527 91.894 -0.527 91.894 1.313 91.916 C3.717 91.938 6.12 91.924 8.525 91.907 C10.195 91.91 11.865 91.915 13.535 91.921 C17.036 91.929 20.536 91.918 24.036 91.895 C28.526 91.866 33.014 91.883 37.504 91.913 C40.953 91.931 44.401 91.925 47.85 91.912 C49.505 91.909 51.161 91.913 52.816 91.924 C55.13 91.937 57.44 91.918 59.754 91.89 C60.439 91.9 61.125 91.91 61.832 91.921 C63.744 91.878 63.744 91.878 66.931 91.243 C70.323 87.574 70.372 83.648 70.351 78.87 C70.36 78.146 70.368 77.421 70.377 76.675 C70.4 74.291 70.401 71.908 70.4 69.524 C70.407 67.862 70.415 66.199 70.423 64.537 C70.437 61.057 70.438 57.577 70.432 54.097 C70.426 49.641 70.457 45.186 70.497 40.731 C70.523 37.299 70.526 33.868 70.523 30.436 C70.524 28.794 70.534 27.151 70.552 25.508 C70.574 23.21 70.564 20.914 70.547 18.616 C70.56 17.94 70.573 17.265 70.587 16.569 C70.526 13.174 70.036 10.868 67.831 8.323 C64.822 5.739 61.772 5.535 57.926 5.596 C57.24 5.587 56.555 5.578 55.849 5.569 C53.595 5.547 51.342 5.562 49.088 5.579 C47.515 5.575 45.942 5.571 44.37 5.564 C41.078 5.557 37.786 5.568 34.494 5.591 C30.281 5.62 26.068 5.603 21.855 5.573 C18.608 5.555 15.362 5.561 12.116 5.574 C10.563 5.577 9.009 5.573 7.456 5.561 C5.282 5.549 3.111 5.568 0.937 5.596 C0.299 5.586 -0.339 5.576 -0.996 5.565 C-5.141 5.663 -7.505 6.634 -10.161 9.699 Z " transform="translate(102.068603515625,20.757080078125)" />
  <path d="M0 0 C-0.627 4.642 -0.627 4.642 -2.625 6.562 C-3.079 7.037 -3.532 7.511 -4 8 C-3.73 10.974 -3.146 11.854 -1 14 C2.543 20.777 3.006 27.643 1.125 35 C0 38 0 38 -2 39 C-2.206 39.371 -2.206 39.371 -3.25 41.25 C-6.438 46.259 -10.387 49.387 -16.215 50.719 C-21.619 51.57 -25.464 51.152 -30.422 48.754 C-32 48 -32 48 -35 47 C-35.531 47.589 -36.062 48.178 -36.609 48.785 C-37.316 49.537 -38.022 50.288 -38.75 51.062 C-39.446 51.817 -40.142 52.571 -40.859 53.348 C-43 55 -43 55 -45.266 54.746 C-45.838 54.5 -46.41 54.254 -47 54 C-46.774 50.15 -45.677 48.47 -42.938 45.938 C-42.39 45.472 -41.842 45.007 -41.277 44.527 C-40 43 -40 43 -39.816 40.816 C-39.877 40.217 -39.938 39.618 -40 39 C-40.66 38.67 -41.32 38.34 -42 38 C-45.041 32.405 -46.11 26.458 -44.566 20.258 C-42.117 13.656 -37.384 6.989 -31.25 3.438 C-26.027 1.222 -19.446 0.629 -14.105 2.754 C-13.596 3.041 -13.087 3.329 -12.562 3.625 C-10 5 -10 5 -7.812 4.375 C-6 3 -6 3 -4.438 1.375 C-3 0 -3 0 0 0 Z M-33.738 12.418 C-35 14 -35 14 -35 17 C-35.66 17 -36.32 17 -37 17 C-39.202 22.644 -40.011 27.751 -37.938 33.562 C-35.742 38.238 -31.575 41.713 -27 44 C-21.455 44.589 -15.812 45.135 -11 41.938 C-6.899 38.338 -4.359 34.803 -3.656 29.316 C-3.422 22.122 -4.472 17.652 -9.312 12.25 C-12.706 9.09 -16.32 8.183 -20.875 7.688 C-25.568 8.157 -30.038 9.4 -33.738 12.418 Z " transform="translate(153,43)" />
</svg>
