<svg xmlns="http://www.w3.org/2000/svg" width="24" height="24" viewBox="0 0 240 240" fill="currentColor" aria-hidden="true">
  <path d="M0 0 C0.718 -0.008 1.436 -0.017 2.175 -0.025 C4.54 -0.049 6.904 -0.058 9.269 -0.065 C10.921 -0.074 12.574 -0.083 14.227 -0.092 C17.69 -0.109 21.153 -0.116 24.617 -0.119 C29.036 -0.125 33.455 -0.162 37.874 -0.208 C41.289 -0.238 44.703 -0.245 48.118 -0.246 C49.746 -0.25 51.374 -0.262 53.002 -0.283 C62.888 -0.401 70.695 -0.301 78.317 6.828 C84.46 13.171 83.988 21.658 83.956 29.935 C83.958 31.043 83.96 32.151 83.962 33.292 C83.963 35.627 83.961 37.96 83.951 40.294 C83.94 43.272 83.946 46.25 83.958 49.228 C83.967 52.088 83.961 54.949 83.956 57.81 C83.96 58.873 83.964 59.936 83.968 61.03 C83.914 69.674 82.556 76.441 76.272 82.724 C70.404 87.869 65.371 88.552 57.769 88.369 C56.003 88.36 54.237 88.354 52.472 88.349 C49.708 88.335 46.948 88.307 44.185 88.235 C27.954 87.848 27.954 87.848 23.568 91.428 C21.226 93.803 19.479 96.495 17.69 99.306 C16.299 100.953 14.885 102.581 13.44 104.181 C12.792 104.91 12.144 105.638 11.476 106.388 C9.331 108.693 7.321 110.577 4.69 112.306 C3.7 112.306 2.71 112.306 1.69 112.306 C-0.006 110.582 -0.295 109.449 -0.537 107.038 C-0.526 106.174 -0.516 105.31 -0.505 104.42 C-0.498 103.482 -0.492 102.544 -0.485 101.578 C-0.469 100.601 -0.452 99.625 -0.435 98.619 C-0.426 97.631 -0.417 96.643 -0.407 95.625 C-0.384 93.185 -0.351 90.746 -0.31 88.306 C-0.915 88.255 -1.52 88.204 -2.144 88.151 C-2.945 88.075 -3.746 87.998 -4.571 87.92 C-5.362 87.848 -6.153 87.776 -6.969 87.702 C-12.323 86.797 -16.955 83.499 -20.31 79.306 C-23.245 73.651 -23.787 68.993 -23.856 62.674 C-23.877 61.76 -23.897 60.846 -23.918 59.905 C-23.958 57.977 -23.991 56.049 -24.018 54.121 C-24.059 51.211 -24.122 48.302 -24.188 45.392 C-24.823 14.16 -24.823 14.16 -17.665 6.56 C-12.193 1.589 -7.394 0.007 0 0 Z M-12.489 9.111 C-13.049 9.794 -13.608 10.477 -14.185 11.181 C-14.759 11.859 -15.334 12.537 -15.927 13.236 C-18.269 16.742 -18.439 20.077 -18.487 24.223 C-18.499 25.198 -18.512 26.173 -18.525 27.178 C-18.533 28.226 -18.54 29.274 -18.548 30.353 C-18.556 31.438 -18.564 32.524 -18.572 33.642 C-18.586 35.938 -18.597 38.235 -18.605 40.531 C-18.614 42.874 -18.634 45.217 -18.666 47.56 C-18.709 50.95 -18.725 54.339 -18.735 57.728 C-18.753 58.768 -18.77 59.808 -18.788 60.879 C-18.77 67.235 -17.942 71.996 -14.31 77.306 C-8.945 82.614 -2.507 83.306 4.69 83.306 C4.69 89.906 4.69 96.506 4.69 103.306 C9.197 99.444 12.497 96.409 16.182 92.036 C23.138 84.057 23.138 84.057 28.922 83.613 C30.478 83.606 32.034 83.629 33.589 83.677 C34.423 83.676 35.258 83.674 36.117 83.672 C38.768 83.668 41.415 83.702 44.065 83.744 C66.105 84.052 66.105 84.052 72.69 78.306 C73.184 77.877 73.677 77.447 74.185 77.005 C79.242 71.301 79.138 62.194 79.089 54.986 C79.092 54.043 79.095 53.099 79.098 52.127 C79.1 50.149 79.094 48.171 79.082 46.193 C79.065 43.182 79.081 40.173 79.101 37.162 C79.099 35.228 79.095 33.295 79.089 31.361 C79.095 30.471 79.101 29.582 79.107 28.665 C79.036 22.284 78.177 16.358 74.042 11.283 C73.472 10.837 72.902 10.391 72.315 9.931 C72.033 9.701 72.033 9.701 70.604 8.533 C66.205 5.714 62.23 5.013 57.083 5.048 C56.441 5.044 55.798 5.041 55.135 5.037 C53.021 5.028 50.906 5.034 48.792 5.041 C47.314 5.039 45.836 5.037 44.357 5.035 C41.262 5.032 38.167 5.036 35.072 5.046 C31.119 5.057 27.166 5.05 23.213 5.039 C20.161 5.031 17.109 5.034 14.056 5.039 C12.599 5.04 11.143 5.038 9.686 5.034 C7.642 5.029 5.6 5.037 3.556 5.048 C2.963 5.044 2.369 5.04 1.758 5.035 C-3.395 5.087 -8.433 5.753 -12.489 9.111 Z " transform="translate(95.3095703125,88.693603515625)" />
  <path d="M0 0 C2.008 0.005 4.016 0.01 6.023 0.014 C10.891 0.025 15.758 0.041 20.625 0.062 C21.688 1.938 21.688 1.938 22.625 4.062 C22.295 4.722 21.965 5.382 21.625 6.062 C2.815 6.062 -15.995 6.062 -35.375 6.062 C-35.705 4.412 -36.035 2.763 -36.375 1.062 C-24.249 -0.091 -12.171 -0.053 0 0 Z " transform="translate(132.375,117.9375)" />
  <path d="M0 0 C1.476 0 2.952 0.006 4.427 0.016 C5.203 0.017 5.978 0.019 6.777 0.02 C9.264 0.026 11.75 0.038 14.236 0.051 C15.918 0.056 17.599 0.061 19.281 0.065 C23.412 0.076 27.543 0.093 31.674 0.114 C32.056 1.77 32.388 3.438 32.674 5.114 C31.674 6.114 31.674 6.114 28.347 6.227 C26.871 6.227 25.395 6.221 23.92 6.211 C23.144 6.21 22.369 6.208 21.57 6.207 C19.084 6.201 16.597 6.189 14.111 6.176 C12.429 6.171 10.748 6.166 9.066 6.162 C4.935 6.151 0.804 6.134 -3.326 6.114 C-3.709 4.457 -4.04 2.789 -4.326 1.114 C-3.326 0.114 -3.326 0.114 0 0 Z " transform="translate(100.326416015625,140.886474609375)" />
</svg>
