<svg xmlns="http://www.w3.org/2000/svg" width="24" height="24" viewBox="0 0 240 240" fill="currentColor" aria-hidden="true">
  <path d="M0 0 C5.684 2.487 9.241 7.422 13.23 12.031 C17.016 16.363 20.925 20.568 24.875 24.75 C25.577 25.495 26.279 26.24 27.002 27.008 C31.295 31.551 35.655 36.004 40.109 40.391 C42.698 43.022 45.105 45.791 47.492 48.605 C49 50.313 49 50.313 51.438 52.438 C53 54.312 53 54.312 53.457 57.02 C52.813 61.663 50.502 63.665 47.25 66.875 C46.17 67.979 45.092 69.085 44.016 70.191 C43.498 70.715 42.981 71.238 42.447 71.778 C41.106 73.2 39.915 74.659 38.734 76.215 C38.448 76.561 38.448 76.561 37 78.312 C36.34 78.312 35.68 78.312 35 78.312 C34.752 79.055 34.505 79.798 34.25 80.562 C32.895 83.543 31.49 85.212 29 87.312 C28.34 87.312 27.68 87.312 27 87.312 C26.752 87.869 26.505 88.426 26.25 89 C23.973 93.212 20.848 96.513 17.465 99.861 C16.437 100.88 15.414 101.905 14.396 102.934 C12.657 104.683 10.893 106.405 9.125 108.125 C8.538 108.722 7.952 109.32 7.348 109.936 C4.618 112.56 2.345 114.709 -1.527 115.117 C-6.267 114.642 -8.78 111.061 -11.688 107.625 C-12.29 106.947 -12.892 106.268 -13.513 105.57 C-14.754 104.172 -15.988 102.767 -17.214 101.356 C-19.838 98.353 -22.54 95.426 -25.25 92.5 C-25.738 91.968 -26.227 91.437 -26.73 90.889 C-29.846 87.51 -33.04 84.228 -36.312 81 C-39.854 77.504 -43.185 73.913 -46.398 70.113 C-47.964 68.353 -49.624 66.822 -51.375 65.25 C-53.793 62.799 -55.303 60.738 -55.574 57.238 C-54.442 53.441 -51.188 51.074 -48.297 48.523 C-45.962 46.276 -44.566 44.13 -43 41.312 C-41.438 39.5 -41.438 39.5 -40 38.312 C-39.34 38.312 -38.68 38.312 -38 38.312 C-37.778 37.772 -37.557 37.232 -37.328 36.676 C-35.551 33.514 -33.237 31.121 -30.75 28.5 C-29.668 27.346 -28.586 26.193 -27.504 25.039 C-26.934 24.435 -26.365 23.831 -25.778 23.208 C-23.953 21.262 -22.145 19.301 -20.34 17.336 C-19.122 16.016 -17.905 14.695 -16.688 13.375 C-16.126 12.761 -15.564 12.147 -14.985 11.514 C-4.771 0.497 -4.771 0.497 0 0 Z M-4.574 9.656 C-5.617 10.703 -6.655 11.756 -7.688 12.812 C-8.192 13.318 -8.697 13.823 -9.217 14.344 C-12.684 17.851 -15.942 21.507 -19.172 25.233 C-22.322 28.817 -25.599 32.281 -28.875 35.75 C-29.574 36.492 -30.273 37.234 -30.993 37.999 C-35.346 42.606 -39.748 47.141 -44.301 51.551 C-49 56.423 -49 56.423 -49 59.312 C-48.34 59.312 -47.68 59.312 -47 59.312 C-46.736 59.905 -46.471 60.498 -46.199 61.109 C-44.956 63.393 -43.696 64.787 -41.812 66.562 C-39.303 68.937 -37.004 71.427 -34.742 74.035 C-31.042 78.297 -27.198 82.407 -23.312 86.5 C-19.308 90.727 -15.307 94.953 -11.398 99.27 C-11.126 99.57 -11.126 99.57 -9.745 101.091 C-8.731 102.212 -7.722 103.336 -6.718 104.466 C-4.488 106.926 -3.212 108.242 0 109.312 C0.704 108.548 1.408 107.784 2.133 106.996 C5.418 103.431 8.708 99.871 12 96.312 C12.593 95.671 13.186 95.03 13.797 94.37 C20.103 87.561 26.432 80.814 33.043 74.301 C35.631 71.671 38.032 68.904 40.426 66.098 C41.862 64.469 43.355 62.985 44.938 61.5 C47 59.312 47 59.312 47 56.312 C45.566 54.84 45.566 54.84 43.562 53.25 C39.556 49.885 36.149 46.251 32.695 42.328 C28.707 37.822 24.541 33.478 20.404 29.11 C16.935 25.432 13.564 21.702 10.312 17.832 C8.324 15.53 6.179 13.434 4 11.312 C3.278 10.549 2.556 9.786 1.812 9 C-1.113 6.276 -1.637 6.982 -4.574 9.656 Z " transform="translate(91,84.6875)" />
  <path d="M0 0 C2.835 1.112 4.26 2.322 6.344 4.531 C7.033 5.257 7.723 5.983 8.434 6.73 C10.857 9.395 13.249 12.082 15.602 14.809 C17.807 17.36 20.037 19.889 22.281 22.406 C22.656 22.828 22.656 22.828 24.551 24.965 C26.469 26.969 26.469 26.969 28.469 27.969 C28.906 30.031 28.906 30.031 28.469 32.969 C26.934 34.851 25.236 36.44 23.457 38.094 C21.536 39.905 19.815 41.781 18.094 43.781 C17.521 44.44 16.949 45.099 16.359 45.777 C14.968 47.39 13.584 49.008 12.203 50.629 C11.417 51.534 10.631 52.439 9.844 53.344 C9.13 54.176 8.415 55.009 7.68 55.867 C5.359 58.073 3.495 59.002 0.469 59.969 C0.469 60.629 0.469 61.289 0.469 61.969 C-2.598 60.612 -4.584 59.119 -6.852 56.66 C-7.158 56.33 -7.158 56.33 -8.711 54.662 C-9.353 53.959 -9.995 53.256 -10.656 52.531 C-11.317 51.813 -11.978 51.094 -12.658 50.354 C-13.991 48.905 -15.321 47.454 -16.65 46.001 C-18.32 44.197 -20.016 42.43 -21.738 40.676 C-22.205 40.191 -22.673 39.706 -23.154 39.207 C-24.385 37.93 -25.628 36.664 -26.871 35.398 C-29.011 32.267 -29.2 30.691 -28.531 26.969 C-27.037 25.05 -25.76 23.67 -23.969 22.094 C-23.04 21.225 -22.113 20.354 -21.188 19.48 C-20.731 19.056 -20.275 18.631 -19.805 18.193 C-18.073 16.528 -16.52 14.739 -14.969 12.906 C-12.329 9.86 -9.662 6.848 -6.906 3.906 C-6.192 3.132 -5.478 2.357 -4.742 1.559 C-2.531 -0.031 -2.531 -0.031 0 0 Z M-0.531 6.969 C-5.988 11.352 -10.357 16.056 -14.633 21.59 C-17.064 24.636 -19.708 27.287 -22.531 29.969 C-21.047 33.455 -19.069 35.611 -16.344 38.219 C-12.72 41.755 -9.322 45.389 -6.039 49.242 C-5.541 49.812 -5.044 50.382 -4.531 50.969 C-4.034 51.539 -3.536 52.108 -3.023 52.695 C-1.531 53.969 -1.531 53.969 1.469 53.969 C1.551 53.35 1.634 52.731 1.719 52.094 C2.469 49.969 2.469 49.969 4.301 49.074 C6.835 47.782 8.099 46.34 9.906 44.156 C12.64 40.926 15.437 37.918 18.469 34.969 C19.232 34.206 19.995 33.442 20.781 32.656 C21.338 32.099 21.895 31.542 22.469 30.969 C18.585 26.284 14.513 21.77 10.406 17.281 C10.153 17.002 10.153 17.002 8.872 15.589 C5.927 12.387 2.943 9.589 -0.531 6.969 Z " transform="translate(90.53125,112.03125)" />
</svg>
