<svg xmlns="http://www.w3.org/2000/svg" width="24" height="24" viewBox="0 0 240 240" fill="currentColor" aria-hidden="true">
  <path d="M0 0 C5.157 1.62 9.209 5.802 12.902 9.598 C13.222 9.268 13.222 9.268 14.84 7.598 C17.949 5.151 20.818 4.84 24.707 5.02 C28.09 5.911 29.387 7.867 31.395 10.621 C32.964 12.678 34.594 14.145 36.59 15.785 C42.205 20.568 46.986 26.117 51.902 31.598 C53.835 33.748 55.773 35.893 57.715 38.035 C58.146 38.519 58.578 39.002 59.023 39.501 C61.25 41.958 63.49 44.104 66.109 46.145 C68.761 48.295 69.875 50.052 70.777 53.41 C71.002 54.2 71.226 54.991 71.457 55.805 C71.604 56.396 71.751 56.988 71.902 57.598 C71.242 57.598 70.582 57.598 69.902 57.598 C70.232 58.588 70.562 59.578 70.902 60.598 C67.708 65.266 63.488 69.035 59.473 72.992 C55.678 76.744 51.933 80.474 48.465 84.535 C45.14 88.428 41.542 91.995 37.895 95.582 C34.79 98.652 31.908 101.81 29.219 105.258 C27 107.516 24.798 108.548 21.652 108.723 C21.075 108.681 20.497 108.64 19.902 108.598 C19.902 107.938 19.902 107.278 19.902 106.598 C19.077 106.618 18.252 106.639 17.402 106.66 C12.89 105.929 10.74 102.332 7.969 98.992 C6.081 96.805 4.18 95.005 1.965 93.16 C-2.069 89.759 -5.445 85.916 -8.926 81.961 C-11.761 78.875 -14.86 76.245 -18.098 73.598 C-21.63 70.542 -23.122 68.21 -24.098 63.598 C-24.053 60.868 -23.875 58.223 -23.098 55.598 C-22.768 55.433 -22.768 55.433 -21.098 54.598 C-20.082 52.94 -19.085 51.272 -18.098 49.598 C-16.813 47.909 -15.499 46.243 -14.16 44.598 C-13.491 43.773 -12.822 42.948 -12.133 42.098 C-10.732 40.377 -9.273 38.702 -7.77 37.07 C-6.098 34.598 -6.098 34.598 -6.328 32.281 C-6.644 31.54 -6.96 30.799 -7.285 30.035 C-7.588 29.291 -7.891 28.548 -8.203 27.781 C-8.498 27.061 -8.794 26.34 -9.098 25.598 C-11.102 19.426 -11.544 10.443 -9.227 4.281 C-6.847 1.044 -4.163 -0.355 0 0 Z M-4.195 7.859 C-6.297 11.907 -5.536 16.916 -4.422 21.188 C-3.701 23.35 -2.939 25.479 -2.098 27.598 C1.688 26.336 3.219 24.064 5.59 21.035 C5.798 20.775 5.798 20.775 6.85 19.459 C7.873 18.177 8.889 16.888 9.902 15.598 C4.762 7.718 4.762 7.718 0.902 6.598 C-2.644 6.076 -2.644 6.076 -4.195 7.859 Z M18.902 10.598 C17.277 12.91 17.277 12.91 15.902 15.598 C15.345 16.134 14.789 16.67 14.215 17.223 C12.902 18.598 12.902 18.598 12.902 21.598 C12.345 21.783 11.789 21.969 11.215 22.16 C7.88 24.233 5.77 27.161 3.902 30.598 C3.902 31.588 3.902 32.578 3.902 33.598 C3.242 33.928 2.582 34.258 1.902 34.598 C3.17 37.162 4.442 39.724 5.715 42.285 C6.071 43.006 6.428 43.728 6.795 44.471 C7.146 45.176 7.497 45.882 7.859 46.609 C8.019 46.931 8.019 46.931 8.827 48.561 C9.182 49.233 9.537 49.905 9.902 50.598 C10.107 51.025 10.107 51.025 11.144 53.189 C12.902 55.598 12.902 55.598 15.275 56.199 C16.21 56.188 17.145 56.177 18.108 56.165 C18.639 56.165 18.639 56.165 21.323 56.164 C22.467 56.138 23.611 56.113 24.789 56.086 C25.973 56.077 27.157 56.069 28.341 56.064 C31.454 56.045 34.565 55.996 37.677 55.941 C40.854 55.89 44.032 55.867 47.209 55.842 C53.441 55.788 59.671 55.703 65.902 55.598 C64.469 52.46 63.134 50.913 60.37 48.838 C58.625 47.363 57.217 45.742 55.734 44.004 C51.854 39.516 47.839 35.171 43.777 30.848 C43.088 30.106 42.398 29.365 41.688 28.602 C36.05 22.597 36.05 22.597 33.129 20.348 C30.15 18.006 28.054 15.189 25.746 12.207 C23.902 10.598 23.902 10.598 21.285 10.219 C20.499 10.344 19.713 10.469 18.902 10.598 Z M-3.098 38.598 C-4.029 39.977 -4.955 41.359 -5.863 42.754 C-8.926 47.329 -12.237 51.68 -15.973 55.723 C-17.797 57.909 -18.12 58.709 -18.723 61.66 C-17.903 65.513 -15.96 67.132 -13.098 69.598 C-11.963 70.692 -10.839 71.797 -9.723 72.91 C-9.127 73.503 -8.532 74.096 -7.918 74.707 C-6.064 76.632 -4.33 78.625 -2.598 80.66 C0.099 83.796 2.949 86.403 6.137 89.023 C8.787 91.387 11.037 94.056 13.324 96.766 C13.585 97.068 13.585 97.068 14.902 98.598 C15.111 98.884 15.111 98.884 16.168 100.336 C18.423 101.976 20.386 102.108 23.137 101.98 C26.168 101.323 27.937 99.338 29.902 97.098 C30.686 96.262 31.47 95.427 32.277 94.566 C33.693 92.981 35.09 91.381 36.483 89.776 C41.593 83.894 46.918 78.241 52.293 72.602 C52.974 71.884 53.654 71.166 54.355 70.426 C54.66 70.106 54.66 70.106 56.204 68.485 C57.883 66.619 59.396 64.606 60.902 62.598 C52.652 62.433 52.652 62.433 10.902 61.598 C10.242 60.278 9.582 58.958 8.902 57.598 C7.982 56.211 7.044 54.836 6.09 53.473 C2.879 48.732 0.342 43.769 -2.098 38.598 C-2.428 38.598 -2.758 38.598 -3.098 38.598 Z " transform="translate(76.09765625,44.40234375)" />
  <path d="M0 0 C2.461 0.461 2.461 0.461 3.938 1.816 C4.316 2.421 4.695 3.026 5.086 3.648 C5.497 4.289 5.908 4.93 6.332 5.59 C6.705 6.207 7.077 6.825 7.461 7.461 C8.018 8.327 8.575 9.193 9.148 10.086 C12.362 15.901 13.597 20.918 11.961 27.461 C10.72 30.846 10.039 32.151 6.773 33.898 C6.01 34.084 5.247 34.27 4.461 34.461 C4.461 35.121 4.461 35.781 4.461 36.461 C0.517 37.122 -2.389 37.213 -5.816 34.973 C-11.083 30.372 -11.083 30.372 -12.539 27.461 C-12.635 25.63 -12.669 23.795 -12.664 21.961 C-12.667 20.981 -12.669 20.002 -12.672 18.992 C-12.539 16.461 -12.539 16.461 -11.539 14.461 C-10.879 14.461 -10.219 14.461 -9.539 14.461 C-9.485 14.098 -9.485 14.098 -9.211 12.262 C-8.49 9.257 -7.456 7.239 -5.789 4.648 C-5.544 4.253 -5.544 4.253 -4.305 2.254 C-2.539 0.461 -2.539 0.461 0 0 Z M-0.539 7.461 C-1.569 9.109 -2.56 10.782 -3.539 12.461 C-3.725 12.769 -3.725 12.769 -4.664 14.328 C-6.536 17.67 -7.906 20.38 -7.602 24.273 C-6.539 27.461 -6.539 27.461 -4.352 29.461 C-0.929 30.678 0.996 30.462 4.461 29.461 C6.703 27.219 7.187 25.649 7.559 22.531 C7.313 17.314 4.579 12.734 1.211 8.898 C0.633 8.424 0.056 7.95 -0.539 7.461 Z " transform="translate(151.5390625,123.5390625)" />
</svg>
