<svg xmlns="http://www.w3.org/2000/svg" width="24" height="24" viewBox="0 0 240 240" fill="currentColor" aria-hidden="true">
  <path d="M0 0 C3.126 1.877 5.188 4.871 7 8 C7.66 7.67 8.32 7.34 9 7 C13.238 6.567 16.94 6.594 20.938 8.125 C24.033 10.939 24.872 13.801 25.113 17.945 C25.124 19.631 25.067 21.316 25 23 C25.33 22.835 25.33 22.835 27 22 C30.616 21.503 34.381 21.066 37.633 22.941 C41.799 26.921 43.096 31.067 43.243 36.663 C43.249 38.532 43.245 40.401 43.23 42.27 C43.23 43.265 43.23 44.259 43.229 45.285 C43.226 47.387 43.218 49.489 43.206 51.591 C43.188 54.791 43.185 57.99 43.186 61.189 C43.181 63.237 43.175 65.285 43.168 67.332 C43.167 68.281 43.166 69.23 43.165 70.208 C43.067 84.076 43.067 84.076 40.688 89.938 C40.422 90.594 40.156 91.25 39.883 91.926 C39.591 92.61 39.3 93.295 39 94 C38.844 94.378 38.844 94.378 38.055 96.293 C36.103 100.879 34.06 105.051 31 109 C30.505 109.165 30.505 109.165 28 110 C27.319 110.743 26.639 111.485 25.938 112.25 C19.492 118.949 10.901 120.899 1.949 121.168 C0.529 121.182 -0.892 121.189 -2.312 121.188 C-2.683 121.188 -2.683 121.188 -4.558 121.189 C-10.211 121.135 -15.534 120.504 -21 119 C-21 118.34 -21 117.68 -21 117 C-21.866 116.918 -22.733 116.835 -23.625 116.75 C-33.126 114.639 -38.975 105.729 -44.027 97.941 C-45.199 96.076 -46.356 94.2 -47.492 92.312 C-48.853 90.226 -50.231 88.726 -52 87 C-52.957 85.492 -52.957 85.492 -53.812 83.875 C-55.42 80.95 -57.183 78.196 -59.062 75.438 C-60.044 73.96 -61.024 72.481 -62 71 C-62.358 70.475 -62.717 69.951 -63.086 69.41 C-65.338 65.681 -65.357 62.357 -64.695 58.188 C-63.482 54.37 -61.403 52.065 -58 50 C-53.977 48.584 -50.976 48.681 -46.938 50 C-42.663 52.525 -38.227 56.546 -36 61 C-35.994 60.437 -35.988 59.874 -35.982 59.294 C-35.918 53.421 -35.834 47.549 -35.738 41.676 C-35.704 39.486 -35.676 37.296 -35.654 35.106 C-35.62 31.953 -35.568 28.801 -35.512 25.648 C-35.505 24.673 -35.499 23.698 -35.492 22.693 C-35.365 16.792 -34.987 12.049 -30.664 7.637 C-28.203 6.695 -25.998 6.774 -23.375 6.812 C-22.884 6.816 -22.884 6.816 -20.398 6.832 C-18 7 -18 7 -17 8 C-16.794 7.526 -16.794 7.526 -15.75 5.125 C-14.817 2.979 -14.187 2.121 -12.199 0.832 C-8.193 -0.683 -4.201 -0.681 0 0 Z M-9.938 6.25 C-11.742 9.222 -12.134 11.801 -12.205 15.196 C-12.225 16.037 -12.245 16.877 -12.266 17.743 C-12.274 18.195 -12.274 18.195 -12.316 20.48 C-12.337 21.408 -12.358 22.336 -12.379 23.293 C-12.445 26.257 -12.504 29.222 -12.562 32.188 C-12.606 34.197 -12.649 36.207 -12.693 38.217 C-12.8 43.144 -12.902 48.072 -13 53 C-13.99 53 -14.98 53 -16 53 C-16.015 51.966 -16.029 50.932 -16.044 49.866 C-16.102 46.018 -16.18 42.169 -16.262 38.321 C-16.296 36.658 -16.324 34.994 -16.346 33.331 C-16.38 30.935 -16.432 28.54 -16.488 26.145 C-16.495 25.405 -16.501 24.665 -16.508 23.903 C-16.644 19.082 -17.436 15.564 -21 12 C-23.863 11.699 -25.405 11.554 -27.75 13.312 C-30.091 16.472 -30.142 19.413 -30.205 23.206 C-30.225 24.267 -30.245 25.328 -30.266 26.421 C-30.282 27.564 -30.299 28.708 -30.316 29.887 C-30.337 31.071 -30.358 32.255 -30.379 33.439 C-30.434 36.551 -30.484 39.663 -30.532 42.775 C-30.583 45.952 -30.638 49.129 -30.693 52.307 C-30.801 58.538 -30.902 64.769 -31 71 C-36.636 70.009 -36.636 70.009 -39 67 C-39.392 66.257 -39.784 65.515 -40.188 64.75 C-42.773 60.827 -46.023 57.528 -50 55 C-53.363 54.613 -54.51 54.656 -57.312 56.625 C-59.503 59.708 -59.531 61.283 -59 65 C-57.625 67.875 -57.625 67.875 -56 70 C-55.34 70 -54.68 70 -54 70 C-53.876 70.592 -53.753 71.184 -53.625 71.795 C-53.004 73.986 -52.262 75.409 -50.996 77.285 C-50.589 77.893 -50.182 78.501 -49.762 79.127 C-49.325 79.766 -48.888 80.405 -48.438 81.062 C-47.991 81.724 -47.544 82.386 -47.084 83.068 C-43.731 88.006 -40.261 92.849 -36.691 97.633 C-35 100 -35 100 -33.414 102.754 C-32 105 -32 105 -29.812 105.812 C-29.513 105.843 -29.513 105.843 -28 106 C-28 106.66 -28 107.32 -28 108 C-20.63 114.719 -8.361 115.506 1.18 115.227 C12.732 114.299 21.088 110.656 29 102 C32.174 97.024 34.346 91.65 36 86 C36.165 85.505 36.165 85.505 37 83 C37.107 81.319 37.159 79.634 37.177 77.949 C37.19 76.922 37.203 75.894 37.216 74.834 C37.223 73.725 37.231 72.616 37.238 71.473 C37.242 70.902 37.242 70.902 37.263 68.017 C37.278 65.603 37.288 63.19 37.295 60.777 C37.306 57.688 37.341 54.601 37.38 51.513 C37.413 48.562 37.417 45.611 37.426 42.66 C37.435 42.106 37.435 42.106 37.479 39.304 C37.476 38.273 37.473 37.242 37.47 36.18 C37.473 35.727 37.473 35.727 37.488 33.435 C36.844 30.219 35.526 29.024 33 27 C30.438 26.5 30.438 26.5 28 27 C25.117 30.01 24.635 32.096 24.707 36.203 C24.717 37.183 24.726 38.162 24.736 39.172 C24.761 40.188 24.787 41.203 24.812 42.25 C24.826 43.281 24.84 44.312 24.854 45.375 C24.889 47.917 24.938 50.458 25 53 C23.35 52.67 21.7 52.34 20 52 C19.985 50.895 19.971 49.79 19.956 48.651 C19.898 44.553 19.821 40.455 19.738 36.357 C19.704 34.583 19.676 32.809 19.654 31.034 C19.62 28.485 19.568 25.936 19.512 23.387 C19.505 22.593 19.499 21.799 19.492 20.981 C19.346 15.501 19.346 15.501 17.62 13.003 C15.22 11.517 13.768 11.527 11 12 C8.667 13.635 7.21 14.919 6.652 17.792 C6.536 20.033 6.551 22.241 6.609 24.484 C6.612 24.892 6.612 24.892 6.627 26.956 C6.649 29.555 6.699 32.152 6.75 34.75 C6.77 36.514 6.788 38.279 6.805 40.043 C6.849 44.363 6.918 48.681 7 53 C5.68 53 4.36 53 3 53 C2.992 52.485 2.984 51.97 2.975 51.439 C2.889 46.069 2.79 40.7 2.683 35.33 C2.644 33.327 2.61 31.325 2.578 29.322 C2.532 26.439 2.474 23.558 2.414 20.676 C2.403 19.783 2.391 18.89 2.379 17.97 C2.275 13.557 2.063 10.013 0 6 C-7.315 4.558 -7.315 4.558 -9.938 6.25 Z " transform="translate(118,82)" />
</svg>
