<svg xmlns="http://www.w3.org/2000/svg" width="24" height="24" viewBox="0 0 240 240" fill="currentColor" aria-hidden="true">
  <path d="M0 0 C2.911 1.554 5.732 3.22 8.523 4.977 C9.052 5.309 9.581 5.641 10.125 5.983 C13.016 7.81 15.885 9.666 18.746 11.539 C21.413 13.277 24.109 14.954 26.832 16.602 C27.551 17.04 28.27 17.477 29.011 17.929 C30.401 18.773 31.795 19.61 33.194 20.438 C37.156 22.857 39.996 25.046 42.523 28.977 C42.839 33.311 42.839 33.311 41.523 35.977 C37.858 39.693 33.517 42.416 28.523 43.977 C28.523 44.637 28.523 45.297 28.523 45.977 C29.183 46.183 29.843 46.389 30.523 46.602 C35.678 48.964 40.599 51.593 42.711 57.039 C42.481 60.635 41.878 62.242 39.523 64.977 C37.54 65.691 35.54 66.363 33.523 66.977 C33.358 67.472 33.358 67.472 32.523 69.977 C30.461 70.664 30.461 70.664 28.523 70.977 C28.523 71.637 28.523 72.297 28.523 72.977 C29.183 73.183 29.843 73.389 30.523 73.602 C34.665 75.5 38.258 77.779 41.523 80.977 C42.791 84.429 42.705 86.179 41.898 89.727 C40.143 92.6 38.653 92.908 35.523 93.977 C35.059 94.444 34.595 94.912 34.117 95.395 C32.349 97.149 30.693 98.075 28.461 99.164 C27.769 99.508 27.076 99.852 26.363 100.207 C24.523 100.977 24.523 100.977 22.523 100.977 C22.523 101.637 22.523 102.297 22.523 102.977 C20.879 104.266 20.879 104.266 18.711 105.602 C18.003 106.048 17.296 106.494 16.566 106.953 C14.523 107.977 14.523 107.977 11.523 107.977 C11.523 108.637 11.523 109.297 11.523 109.977 C10.424 110.651 9.319 111.316 8.211 111.977 C7.596 112.348 6.981 112.719 6.348 113.102 C4.523 113.977 4.523 113.977 1.523 113.977 C1.358 114.472 1.358 114.472 0.523 116.977 C-4.474 118.642 -8.767 118.691 -13.652 116.648 C-14.709 116.026 -15.754 115.385 -16.789 114.727 C-17.364 114.38 -17.938 114.034 -18.531 113.677 C-20.526 112.465 -22.501 111.222 -24.477 109.977 C-26.151 108.932 -27.826 107.888 -29.5 106.844 C-34.176 103.915 -38.84 100.968 -43.477 97.977 C-44.053 97.635 -44.63 97.294 -45.224 96.943 C-45.431 96.783 -45.431 96.783 -46.477 95.977 C-46.477 95.317 -46.477 94.657 -46.477 93.977 C-47.24 93.873 -48.003 93.77 -48.789 93.664 C-51.79 92.896 -52.77 92.536 -54.477 89.977 C-55.295 87.598 -55.638 85.491 -55.477 82.977 C-52.992 78.234 -49.093 76.447 -44.402 74.09 C-42.477 72.977 -42.477 72.977 -41.477 70.977 C-42.137 70.77 -42.797 70.564 -43.477 70.352 C-48.631 67.989 -53.552 65.36 -55.664 59.914 C-55.436 56.339 -54.567 54.873 -52.477 51.977 C-49.777 49.957 -49.777 49.957 -46.789 48.164 C-46.534 48.008 -46.534 48.008 -45.24 47.221 C-43.992 46.462 -42.735 45.718 -41.477 44.977 C-41.856 44.753 -41.856 44.753 -43.777 43.621 C-44.782 43.011 -45.786 42.4 -46.789 41.789 C-47.775 41.197 -48.761 40.606 -49.777 39.996 C-52.634 37.859 -53.971 36.187 -55.477 32.977 C-55.559 29.01 -54.962 27.489 -52.227 24.602 C-48.218 21.614 -43.887 19.088 -39.609 16.508 C-36.323 14.514 -33.08 12.457 -29.844 10.383 C-29.352 10.068 -28.86 9.752 -28.353 9.428 C-26.355 8.147 -24.358 6.866 -22.364 5.579 C-20.953 4.668 -19.539 3.762 -18.125 2.855 C-17.302 2.325 -16.479 1.795 -15.63 1.248 C-10.557 -1.747 -5.448 -2.251 0 0 Z M-11.477 4.977 C-11.928 5.441 -12.379 5.905 -12.844 6.383 C-14.664 8.159 -16.374 9.075 -18.664 10.164 C-19.379 10.508 -20.095 10.852 -20.832 11.207 C-21.375 11.461 -21.917 11.715 -22.477 11.977 C-22.477 12.637 -22.477 13.297 -22.477 13.977 C-23.138 14.206 -23.799 14.435 -24.48 14.672 C-28.378 16.369 -31.835 18.572 -35.414 20.852 C-36.104 21.286 -36.795 21.72 -37.506 22.168 C-38.862 23.024 -40.214 23.885 -41.562 24.753 C-42.803 25.546 -44.054 26.324 -45.317 27.083 C-46.98 28.109 -46.98 28.109 -49.477 29.977 C-49.477 30.967 -49.477 31.957 -49.477 32.977 C-47.755 34.384 -47.755 34.384 -45.34 35.832 C-44.458 36.368 -43.576 36.905 -42.668 37.458 C-41.718 38.021 -40.768 38.584 -39.789 39.164 C-38.833 39.743 -37.876 40.321 -36.891 40.917 C-34.973 42.077 -33.054 43.232 -31.131 44.383 C-27.728 46.426 -24.351 48.51 -20.977 50.602 C-19.145 51.729 -17.312 52.854 -15.477 53.977 C-14.605 54.531 -13.734 55.085 -12.836 55.656 C-9.629 57.451 -7.009 57.72 -3.477 56.977 C-0.279 55.622 2.587 53.82 5.523 51.977 C6.525 51.365 7.528 50.754 8.531 50.145 C11.296 48.459 14.049 46.756 16.799 45.047 C19.702 43.245 22.613 41.455 25.523 39.664 C26.051 39.339 26.579 39.014 27.122 38.678 C30.243 36.756 33.377 34.857 36.523 32.977 C35.908 29.331 35.908 29.331 34.227 27.779 C33.676 27.451 33.126 27.123 32.559 26.785 C31.932 26.403 31.305 26.021 30.66 25.627 C29.976 25.227 29.291 24.827 28.586 24.414 C27.88 23.988 27.175 23.562 26.448 23.123 C24.934 22.209 23.418 21.301 21.899 20.397 C19.489 18.956 17.094 17.492 14.703 16.02 C10.32 13.322 5.936 10.625 1.523 7.977 C0.86 7.578 0.196 7.179 -0.488 6.769 C-0.8 6.585 -0.8 6.585 -2.379 5.656 C-2.929 5.331 -3.48 5.006 -4.047 4.671 C-6.608 3.427 -8.871 4.108 -11.477 4.977 Z M-42.039 52.227 C-43.01 52.83 -43.98 53.433 -44.98 54.055 C-47.501 55.996 -48.212 57.159 -49.477 59.977 C-42.715 64.32 -35.949 68.655 -29.172 72.975 C-26.16 74.896 -23.158 76.831 -20.168 78.785 C-19.063 79.495 -17.957 80.205 -16.852 80.914 C-15.952 81.501 -15.052 82.087 -14.125 82.691 C-10.258 84.568 -6.522 85.643 -2.281 84.262 C-1.644 83.858 -1.008 83.455 -0.352 83.039 C0.406 82.574 1.164 82.108 1.945 81.629 C2.796 81.084 3.647 80.538 4.523 79.977 C5.548 79.35 6.574 78.727 7.602 78.105 C13.791 74.352 19.913 70.492 26 66.574 C27.644 65.533 29.305 64.519 30.984 63.535 C31.719 63.103 32.454 62.671 33.211 62.227 C33.854 61.86 34.497 61.494 35.16 61.117 C35.61 60.741 36.06 60.364 36.523 59.977 C36.523 58.987 36.523 57.997 36.523 56.977 C34.48 55.385 32.539 54.057 30.336 52.727 C29.758 52.35 29.18 51.974 28.584 51.586 C25.977 49.984 24.2 48.989 21.105 48.934 C17.25 50.491 13.878 52.655 10.398 54.914 C9.683 55.37 8.968 55.825 8.23 56.295 C2.975 59.649 2.975 59.649 1.004 61.076 C-2.495 63.203 -6.22 63.268 -10.07 62.375 C-15.934 60.27 -21.144 56.426 -26.396 53.145 C-27.262 52.612 -28.128 52.08 -29.02 51.531 C-29.804 51.041 -30.588 50.551 -31.395 50.046 C-35.784 47.79 -38.211 49.8 -42.039 52.227 Z M-40.414 77.789 C-41.104 78.126 -41.793 78.462 -42.504 78.809 C-44.51 79.996 -45.869 81.305 -47.477 82.977 C-47.807 83.142 -47.807 83.142 -49.477 83.977 C-49.316 85.747 -49.316 85.747 -48.477 87.977 C-46.673 89.384 -45.003 90.513 -43.043 91.656 C-42.491 91.991 -41.939 92.327 -41.37 92.672 C-39.6 93.744 -37.82 94.798 -36.039 95.852 C-34.875 96.552 -33.712 97.254 -32.549 97.957 C-29.73 99.658 -26.902 101.344 -24.072 103.026 C-20.834 104.955 -17.61 106.906 -14.383 108.852 C-10.311 111.254 -7.16 111.535 -2.477 110.977 C0.001 110.088 2.12 108.822 4.336 107.414 C4.939 107.05 5.542 106.686 6.164 106.31 C7.963 105.217 9.744 104.101 11.523 102.977 C11.995 102.684 11.995 102.684 14.379 101.203 C16.14 100.095 17.893 98.974 19.637 97.84 C21.849 96.412 24.072 95.02 26.316 93.645 C26.962 93.244 27.608 92.843 28.273 92.429 C29.546 91.64 30.823 90.858 32.105 90.084 C33.848 88.992 33.848 88.992 36.523 86.977 C36.523 85.987 36.523 84.997 36.523 83.977 C34.501 82.353 32.591 81.015 30.398 79.664 C29.829 79.279 29.259 78.894 28.672 78.498 C25.645 76.609 24.214 75.869 20.602 76.434 C16.702 78.388 13.055 80.602 9.398 82.977 C8.001 83.874 6.603 84.77 5.203 85.664 C4.898 85.862 4.898 85.862 3.351 86.863 C-1.395 89.754 -4.926 91.023 -10.477 89.977 C-14.354 88.334 -17.907 86.195 -21.477 83.977 C-21.762 83.8 -21.762 83.8 -23.206 82.907 C-23.502 82.724 -23.502 82.724 -25 81.797 C-25.589 81.433 -26.178 81.069 -26.784 80.693 C-27.939 79.975 -29.09 79.25 -30.237 78.518 C-34.537 75.803 -35.924 75.557 -40.414 77.789 Z " transform="translate(114.4765625,105.0234375)" />
</svg>
