<svg xmlns="http://www.w3.org/2000/svg" width="24" height="24" viewBox="0 0 240 240" fill="currentColor" aria-hidden="true">
  <path d="M0 0 C8.222 4.272 13.526 9.082 16.902 17.82 C17.685 21.168 18.022 24.25 18 27.684 C17.998 28.127 17.998 28.127 17.99 30.369 C17.986 30.825 17.986 30.825 17.965 33.133 C17.96 34.064 17.956 34.996 17.951 35.955 C17.939 38.244 17.923 40.532 17.902 42.82 C18.452 42.878 19.002 42.936 19.569 42.995 C20.29 43.077 21.011 43.158 21.754 43.242 C22.469 43.32 23.184 43.399 23.92 43.479 C26.64 43.947 28.029 44.803 29.902 46.82 C31.656 50.473 32.158 53.399 32.177 57.433 C32.187 58.535 32.196 59.636 32.206 60.771 C32.206 61.963 32.205 63.155 32.203 64.348 C32.207 65.582 32.211 66.816 32.216 68.05 C32.224 70.631 32.223 73.212 32.218 75.794 C32.212 79.09 32.229 82.386 32.252 85.682 C32.267 88.229 32.268 90.776 32.265 93.324 C32.265 94.538 32.271 95.753 32.281 96.968 C32.371 109.298 32.371 109.298 28.902 113.82 C25.007 115.829 21.457 116.108 17.156 116.079 C16.827 116.081 16.827 116.081 15.163 116.09 C13.002 116.098 10.841 116.093 8.68 116.086 C7.172 116.087 5.664 116.089 4.156 116.092 C1.001 116.095 -2.153 116.09 -5.308 116.081 C-9.349 116.07 -13.389 116.076 -17.43 116.088 C-20.541 116.095 -23.653 116.093 -26.764 116.088 C-28.254 116.087 -29.744 116.088 -31.234 116.093 C-33.317 116.098 -35.398 116.09 -37.481 116.079 C-37.788 116.081 -37.788 116.081 -39.34 116.091 C-42.772 116.057 -45.207 115.71 -48.098 113.82 C-53.411 108.308 -52.614 102.034 -52.488 94.766 C-52.481 93.496 -52.475 92.227 -52.471 90.957 C-52.456 87.633 -52.417 84.309 -52.372 80.985 C-52.331 77.587 -52.313 74.188 -52.293 70.789 C-52.25 64.132 -52.182 57.477 -52.098 50.82 C-51.438 50.82 -50.778 50.82 -50.098 50.82 C-50.056 50.243 -50.015 49.665 -49.973 49.07 C-48.858 46.203 -47.422 45.28 -44.961 43.555 C-42.319 42.513 -39.906 42.71 -37.098 42.82 C-37.119 42.171 -37.14 41.521 -37.161 40.852 C-37.245 37.862 -37.297 34.873 -37.348 31.883 C-37.381 30.861 -37.415 29.84 -37.449 28.787 C-37.56 20.087 -35.818 13.634 -29.973 7.07 C-21.492 -0.638 -11.13 -4.239 0 0 Z M-27.555 12.711 C-34.766 22.57 -32.098 29.541 -32.098 42.82 C-17.248 42.82 -2.398 42.82 12.902 42.82 C12.902 20.82 12.902 20.82 8.215 13.008 C2.339 7.45 -3.581 4.469 -11.695 4.613 C-18.467 5.197 -22.813 7.98 -27.555 12.711 Z M-45.471 51.026 C-47.235 54.056 -47.599 55.646 -47.599 59.114 C-47.609 60.145 -47.618 61.176 -47.628 62.238 C-47.617 63.34 -47.605 64.443 -47.594 65.578 C-47.595 66.718 -47.597 67.858 -47.598 69.033 C-47.6 71.439 -47.587 73.844 -47.564 76.25 C-47.536 79.331 -47.539 82.412 -47.551 85.493 C-47.56 88.438 -47.545 91.383 -47.531 94.328 C-47.534 95.434 -47.537 96.541 -47.54 97.68 C-47.527 98.705 -47.515 99.73 -47.502 100.786 C-47.496 101.688 -47.491 102.59 -47.485 103.519 C-47.02 106.282 -46.363 107.205 -44.098 108.82 C-43.108 108.82 -42.118 108.82 -41.098 108.82 C-41.098 109.48 -41.098 110.14 -41.098 110.82 C-20.308 110.82 0.482 110.82 21.902 110.82 C21.902 110.16 21.902 109.5 21.902 108.82 C22.542 108.532 23.181 108.243 23.84 107.945 C25.902 106.82 25.902 106.82 26.902 104.82 C27.002 103.244 27.041 101.663 27.048 100.083 C27.054 99.098 27.06 98.113 27.067 97.099 C27.068 96.031 27.069 94.963 27.07 93.863 C27.074 92.768 27.077 91.673 27.08 90.545 C27.085 88.224 27.088 85.903 27.088 83.582 C27.088 80.616 27.101 77.651 27.118 74.685 C27.132 71.849 27.132 69.012 27.133 66.176 C27.136 65.645 27.136 65.645 27.155 62.959 C27.153 62.462 27.153 62.462 27.145 59.946 C27.147 59.075 27.148 58.204 27.15 57.306 C26.869 54.481 26.16 52.361 24.902 49.82 C22.195 48.467 19.645 48.648 16.68 48.627 C16.043 48.619 15.405 48.611 14.748 48.603 C12.635 48.578 10.523 48.561 8.41 48.547 C7.689 48.542 6.968 48.536 6.224 48.531 C2.407 48.504 -1.41 48.485 -5.227 48.47 C-9.171 48.454 -13.113 48.409 -17.057 48.358 C-20.089 48.324 -23.12 48.313 -26.152 48.307 C-27.606 48.3 -29.059 48.285 -30.513 48.261 C-32.548 48.229 -34.581 48.229 -36.617 48.237 C-37.216 48.22 -37.816 48.204 -38.434 48.187 C-41.782 48.237 -42.989 48.72 -45.471 51.026 Z " transform="translate(140.09765625,46.1796875)" />
  <path d="M0 0 C3.125 0.375 3.125 0.375 5.5 1.875 C7.73 5.306 7.831 8.376 7.125 12.375 C6.227 14.121 6.227 14.121 5.125 15.375 C4.465 15.375 3.805 15.375 3.125 15.375 C3.125 19.995 3.125 24.615 3.125 29.375 C1.475 29.705 -0.175 30.035 -1.875 30.375 C-3.071 26.409 -2.827 22.812 -2.617 18.715 C-2.931 15.868 -3.783 15.22 -5.875 13.375 C-5.875 12.715 -5.875 12.055 -5.875 11.375 C-6.535 11.375 -7.195 11.375 -7.875 11.375 C-7.875 9.725 -7.875 8.075 -7.875 6.375 C-7.215 6.375 -6.555 6.375 -5.875 6.375 C-5.751 5.756 -5.627 5.138 -5.5 4.5 C-4.506 1.121 -3.464 0.452 0 0 Z " transform="translate(129.875,111.625)" />
</svg>
