<svg xmlns="http://www.w3.org/2000/svg" width="24" height="24" viewBox="0 0 240 240" fill="currentColor" aria-hidden="true">
  <path d="M0 0 C0.44 -0.003 0.44 -0.003 2.668 -0.017 C3.631 -0.018 4.594 -0.02 5.587 -0.021 C6.603 -0.026 7.62 -0.031 8.667 -0.036 C12.036 -0.05 15.404 -0.057 18.773 -0.063 C20.52 -0.067 22.267 -0.071 24.014 -0.076 C28.882 -0.087 33.75 -0.095 38.618 -0.098 C44.909 -0.103 51.2 -0.12 57.491 -0.149 C62.357 -0.171 67.223 -0.181 72.09 -0.182 C74.995 -0.184 77.899 -0.191 80.804 -0.207 C84.046 -0.224 87.287 -0.223 90.528 -0.216 C91.008 -0.221 91.008 -0.221 93.434 -0.244 C98.281 -0.213 101.856 -0.186 105.687 3.14 C108.185 6.512 107.992 10.189 108.006 14.232 C108.016 14.938 108.026 15.645 108.036 16.372 C108.067 18.701 108.084 21.03 108.101 23.359 C108.119 24.981 108.139 26.602 108.159 28.223 C108.211 32.489 108.25 36.756 108.288 41.022 C108.328 45.36 108.379 49.697 108.429 54.035 C108.501 60.373 108.568 66.711 108.627 73.049 C108.633 73.711 108.639 74.373 108.645 75.055 C108.794 91.618 108.794 91.618 104.136 97.012 C101.254 99.256 97.859 99.266 94.322 99.274 C93.456 99.278 92.59 99.283 91.697 99.287 C91.226 99.287 91.226 99.287 88.841 99.286 C88.342 99.287 88.342 99.287 85.814 99.296 C82.511 99.305 79.208 99.307 75.905 99.308 C73.611 99.312 71.317 99.315 69.023 99.318 C64.215 99.325 59.407 99.326 54.598 99.326 C49.043 99.325 43.487 99.336 37.932 99.351 C32.583 99.366 27.234 99.37 21.885 99.369 C19.611 99.37 17.337 99.375 15.063 99.382 C11.886 99.392 8.709 99.389 5.532 99.383 C4.59 99.389 3.647 99.395 2.676 99.4 C1.81 99.396 0.944 99.392 0.051 99.388 C-0.7 99.388 -1.45 99.389 -2.224 99.389 C-6.694 98.857 -9.412 96.442 -12.313 93.14 C-13.523 89.512 -13.492 86.163 -13.522 82.384 C-13.532 81.595 -13.542 80.806 -13.552 79.993 C-13.582 77.381 -13.603 74.768 -13.622 72.156 C-13.625 71.709 -13.625 71.709 -13.642 69.449 C-13.674 64.721 -13.699 59.993 -13.718 55.264 C-13.736 51.355 -13.771 47.447 -13.821 43.538 C-13.881 38.814 -13.912 34.091 -13.922 29.367 C-13.93 27.569 -13.949 25.772 -13.978 23.975 C-14.017 21.454 -14.018 18.936 -14.01 16.415 C-14.03 15.678 -14.05 14.941 -14.071 14.182 C-13.998 8.97 -12.391 6.299 -8.894 2.478 C-6.13 0.139 -3.465 0.013 0 0 Z M-6.903 8.207 C-8.677 11.896 -8.871 14.672 -8.815 18.713 C-8.82 19.458 -8.826 20.204 -8.831 20.972 C-8.844 23.425 -8.827 25.878 -8.809 28.332 C-8.81 30.041 -8.811 31.751 -8.814 33.461 C-8.815 37.039 -8.803 40.617 -8.78 44.196 C-8.751 48.782 -8.754 53.367 -8.767 57.952 C-8.774 61.481 -8.766 65.009 -8.754 68.538 C-8.749 70.228 -8.749 71.919 -8.753 73.61 C-8.756 75.973 -8.739 78.335 -8.717 80.697 C-8.722 81.395 -8.726 82.093 -8.731 82.812 C-8.688 85.602 -8.383 87.953 -7.409 90.573 C-3.808 93.266 0.253 92.695 4.618 92.658 C5.638 92.665 6.658 92.672 7.708 92.679 C11.087 92.697 14.464 92.685 17.843 92.672 C20.186 92.674 22.528 92.678 24.871 92.683 C29.784 92.691 34.696 92.681 39.609 92.662 C45.289 92.64 50.968 92.647 56.648 92.669 C61.525 92.687 66.401 92.69 71.278 92.679 C74.191 92.673 77.103 92.674 80.016 92.686 C83.262 92.696 86.508 92.68 89.755 92.658 C90.721 92.666 91.688 92.674 92.683 92.683 C99.07 92.601 99.07 92.601 101.776 90.58 C103.02 87.246 103.158 84.103 103.183 80.59 C103.199 79.835 103.216 79.08 103.233 78.302 C103.283 75.811 103.312 73.32 103.339 70.828 C103.366 69.094 103.394 67.361 103.422 65.628 C103.478 61.996 103.523 58.365 103.56 54.733 C103.609 50.079 103.69 45.425 103.779 40.772 C103.844 37.193 103.89 33.614 103.931 30.034 C103.953 28.318 103.981 26.602 104.016 24.886 C104.062 22.488 104.083 20.09 104.097 17.691 C104.106 17.337 104.106 17.337 104.154 15.544 C104.148 12.459 103.83 10.389 102.282 7.702 C98.237 5.268 94.386 5.575 89.749 5.607 C88.741 5.598 87.732 5.59 86.693 5.581 C83.357 5.558 80.022 5.565 76.687 5.574 C74.37 5.569 72.054 5.563 69.737 5.555 C64.882 5.543 60.027 5.549 55.171 5.564 C49.561 5.581 43.951 5.565 38.341 5.533 C32.94 5.503 27.539 5.501 22.137 5.51 C19.841 5.511 17.544 5.504 15.248 5.49 C12.039 5.472 8.833 5.487 5.624 5.509 C4.672 5.498 3.721 5.486 2.74 5.474 C-3.593 5.566 -3.593 5.566 -6.903 8.207 Z " transform="translate(65.31332397460938,110.85955810546875)" />
  <path d="M0 0 C6.467 4.507 11.234 11.132 15 18 C18.126 15.048 20.573 12.281 22.887 8.625 C24.998 5.544 27.524 2.79 30 0 C31.479 0.785 31.479 0.785 33 2 C33.267 4.695 33.348 7.158 33.293 9.852 C33.289 10.626 33.284 11.4 33.28 12.197 C33.263 14.673 33.226 17.149 33.188 19.625 C33.172 21.302 33.159 22.979 33.146 24.656 C33.113 28.771 33.062 32.885 33 37 C31.35 37 29.7 37 28 37 C28 29.08 28 21.16 28 13 C27.34 13 26.68 13 26 13 C25.897 13.33 25.897 13.33 25.375 15 C23.511 19.067 21.136 22.789 18 26 C15.805 26.734 15.805 26.734 14 27 C6.333 18.923 6.333 18.923 5 13 C4.34 13 3.68 13 3 13 C3.174 13.623 3.348 14.245 3.527 14.887 C4.189 19.245 3.847 23.427 3.562 27.812 C3.51 28.696 3.458 29.58 3.404 30.49 C3.275 32.661 3.14 34.83 3 37 C1.35 36.67 -0.3 36.34 -2 36 C-2.049 31.195 -2.086 26.389 -2.11 21.583 C-2.12 19.948 -2.134 18.313 -2.151 16.677 C-2.175 14.329 -2.186 11.981 -2.195 9.633 C-2.2 9.266 -2.2 9.266 -2.227 7.41 C-2.227 5.605 -2.122 3.801 -2 2 C-1.34 1.34 -0.68 0.68 0 0 Z " transform="translate(77,142)" />
  <path d="M0 0 C1.32 0.66 2.64 1.32 4 2 C4.33 9.92 4.66 17.84 5 26 C5.99 24.845 5.99 24.845 11 19 C12.32 19.33 13.64 19.66 15 20 C15.199 22.336 15.223 23.638 13.978 25.663 C12.439 27.396 10.891 29.116 9.312 30.812 C8.782 31.423 8.252 32.033 7.705 32.662 C3.78 36.934 3.78 36.934 0.465 37.215 C-2.878 35.567 -5.173 33.41 -7.75 30.75 C-8.244 30.272 -8.737 29.794 -9.246 29.301 C-12.162 26.353 -13.655 24.296 -14 20 C-12.234 19.285 -12.234 19.285 -10 19 C-8.078 20.434 -8.078 20.434 -6.25 22.438 C-5.943 22.767 -5.943 22.767 -4.391 24.434 C-3.932 24.951 -3.473 25.467 -3 26 C-2.98 25.283 -2.96 24.567 -2.94 23.829 C-2.845 20.594 -2.735 17.359 -2.625 14.125 C-2.61 13.561 -2.61 13.561 -2.531 10.707 C-2.493 9.631 -2.454 8.554 -2.414 7.445 C-2.383 6.45 -2.351 5.455 -2.319 4.43 C-2 2 -2 2 0 0 Z " transform="translate(139,142)" />
</svg>
