<svg xmlns="http://www.w3.org/2000/svg" width="24" height="24" viewBox="0 0 240 240" fill="currentColor" aria-hidden="true">
  <path d="M0 0 C4.785 0.43 6.523 2.203 9.562 5.812 C13.919 10.924 13.919 10.924 16.293 13.152 C16.856 13.762 17.42 14.372 18 15 C17.75 17.75 17.75 17.75 17 20 C13.222 20 12.582 19.018 9.875 16.5 C6.083 13 6.083 13 5 13 C5.002 13.497 5.004 13.993 5.007 14.505 C5.029 19.663 5.044 24.822 5.055 29.98 C5.06 31.906 5.067 33.833 5.075 35.759 C5.088 38.524 5.093 41.29 5.098 44.055 C5.103 44.919 5.108 45.784 5.113 46.675 C5.113 47.475 5.113 48.276 5.114 49.101 C5.116 49.807 5.118 50.513 5.12 51.241 C5 53 5 53 4 55 C17.53 54.67 31.06 54.34 45 54 C42.03 51.03 39.06 48.06 36 45 C36.33 43.68 36.66 42.36 37 41 C41.785 41.43 43.523 43.203 46.562 46.812 C50.939 51.948 50.939 51.948 53.34 54.012 C55 56 55 56 55.012 58.438 C53.764 61.597 52.128 63.517 49.812 66 C49.41 66.434 49.007 66.869 48.592 67.316 C45.592 70.503 42.465 73.335 39 76 C38.505 75.67 38.505 75.67 36 74 C36.481 69.831 39.009 66.795 42 64 C42.66 64 43.32 64 44 64 C44 63.34 44 62.68 44 62 C44.66 62 45.32 62 46 62 C46 61.34 46 60.68 46 60 C45.586 60.325 45.172 60.651 44.745 60.986 C42.67 62.192 41.465 62.242 39.079 62.227 C38.684 62.227 38.684 62.227 36.681 62.226 C35.854 62.216 35.028 62.206 34.176 62.195 C33.794 62.194 33.794 62.194 31.862 62.189 C29.012 62.179 26.162 62.151 23.312 62.125 C16.939 62.084 10.566 62.042 4 62 C4 76.19 4 90.38 4 105 C9 101 9 101 11 98.25 C13 96 13 96 15.75 95.688 C16.493 95.791 17.235 95.894 18 96 C17.881 99.933 16.518 101.735 13.812 104.375 C13.182 104.962 12.552 105.548 11.902 106.152 C9.51 108.476 7.541 111.041 5.555 113.715 C4 115 4 115 1.676 115.523 C-2.238 114.758 -4.039 112.545 -6.688 109.688 C-7.173 109.188 -7.658 108.688 -8.158 108.174 C-13.947 102.146 -13.947 102.146 -14.125 98.312 C-14.084 97.549 -14.042 96.786 -14 96 C-11.375 96.062 -11.375 96.062 -8 97 C-6.02 99.31 -4.04 101.62 -2 104 C-1.67 90.14 -1.34 76.28 -1 62 C-13.87 62.33 -26.74 62.66 -40 63 C-37.36 65.97 -34.72 68.94 -32 72 C-32.99 73.32 -33.98 74.64 -35 76 C-37 76 -37 76 -38.48 74.531 C-39.044 73.861 -39.607 73.191 -40.188 72.5 C-42.096 70.23 -43.997 68.004 -46.051 65.863 C-46.694 65.187 -47.337 64.51 -48 63.812 C-48.598 63.2 -49.196 62.588 -49.812 61.957 C-51 60 -51 60 -50.797 57.414 C-49.766 54.292 -48.167 52.468 -46 50 C-45.593 49.491 -45.185 48.982 -44.766 48.457 C-42.442 45.552 -40.259 42.892 -37 41 C-34.75 40.812 -34.75 40.812 -33 41 C-33 42.65 -33 44.3 -33 46 C-35.64 48.64 -38.28 51.28 -41 54 C-34.4 54.165 -34.4 54.165 -1 55 C-1.33 40.48 -1.66 25.96 -2 11 C-4.97 14.3 -7.94 17.6 -11 21 C-11.99 21 -12.98 21 -14 21 C-14.824 18.844 -14.824 18.844 -15 16 C-13.319 13.892 -11.797 12.273 -9.812 10.5 C-8.817 9.575 -7.823 8.648 -6.832 7.719 C-6.352 7.271 -5.872 6.824 -5.377 6.363 C-3.377 4.383 -1.701 2.24 0 0 Z " transform="translate(122,43)" />
</svg>
