<svg xmlns="http://www.w3.org/2000/svg" width="24" height="24" viewBox="0 0 240 240" fill="currentColor" aria-hidden="true">
  <path d="M0 0 C10.605 -0.116 21.21 -0.205 31.815 -0.259 C36.74 -0.285 41.664 -0.321 46.589 -0.377 C51.341 -0.432 56.094 -0.461 60.847 -0.474 C62.66 -0.484 64.473 -0.502 66.285 -0.529 C68.826 -0.565 71.364 -0.57 73.905 -0.568 C74.654 -0.586 75.403 -0.604 76.174 -0.622 C79.876 -0.586 82.138 -0.323 84.881 2.285 C88.931 7.474 89.295 10.829 89.275 17.269 C89.28 18.101 89.285 18.932 89.29 19.789 C89.304 22.535 89.303 25.281 89.301 28.027 C89.305 29.938 89.309 31.848 89.314 33.759 C89.321 37.763 89.321 41.766 89.316 45.77 C89.31 50.9 89.327 56.028 89.35 61.158 C89.365 65.103 89.366 69.048 89.363 72.994 C89.363 74.885 89.368 76.776 89.378 78.667 C89.391 81.312 89.384 83.956 89.372 86.601 C89.38 87.381 89.388 88.161 89.395 88.965 C89.352 93.446 88.967 96.414 86 100 C81.87 103.355 78.287 103.436 73.2 103.404 C72.43 103.411 71.66 103.418 70.867 103.425 C68.33 103.443 65.794 103.439 63.258 103.434 C61.488 103.438 59.718 103.443 57.949 103.449 C54.242 103.458 50.535 103.456 46.828 103.446 C42.087 103.435 37.348 103.455 32.608 103.484 C28.953 103.502 25.299 103.502 21.644 103.496 C19.897 103.496 18.15 103.502 16.403 103.515 C13.955 103.53 11.507 103.519 9.059 103.502 C8.344 103.511 7.629 103.521 6.892 103.531 C1.815 103.457 -2.049 102.292 -6 99 C-8.612 94.904 -8.277 90.39 -8.243 85.677 C-8.245 84.852 -8.247 84.027 -8.249 83.177 C-8.252 80.459 -8.242 77.741 -8.23 75.023 C-8.229 73.132 -8.229 71.241 -8.229 69.349 C-8.228 65.39 -8.219 61.431 -8.206 57.472 C-8.189 52.393 -8.185 47.314 -8.186 42.235 C-8.185 38.332 -8.18 34.429 -8.173 30.525 C-8.17 28.652 -8.168 26.779 -8.167 24.906 C-8.165 22.292 -8.156 19.678 -8.145 17.064 C-8.146 16.288 -8.146 15.512 -8.147 14.712 C-8.142 14 -8.138 13.288 -8.134 12.554 C-8.132 11.936 -8.13 11.319 -8.129 10.683 C-7.871 7.319 -7.067 6.06 -4.562 3.812 C-2 2 -2 2 0 2 C0 1.34 0 0.68 0 0 Z M-2 9 C-3.551 12.593 -3.148 16.677 -3.145 20.535 C-3.149 21.288 -3.152 22.042 -3.155 22.818 C-3.165 25.304 -3.167 27.791 -3.168 30.277 C-3.171 32.008 -3.175 33.74 -3.178 35.471 C-3.184 39.098 -3.186 42.725 -3.185 46.352 C-3.185 50.997 -3.199 55.642 -3.216 60.287 C-3.227 63.862 -3.229 67.436 -3.229 71.011 C-3.23 72.724 -3.234 74.436 -3.242 76.148 C-3.252 78.544 -3.249 80.94 -3.243 83.336 C-3.249 84.041 -3.254 84.746 -3.26 85.472 C-3.235 89.359 -3.065 92.584 -1 96 C2.889 98.321 6.868 98.291 11.281 98.275 C11.996 98.28 12.71 98.285 13.446 98.29 C15.798 98.304 18.149 98.303 20.5 98.301 C22.14 98.305 23.78 98.309 25.42 98.314 C28.853 98.321 32.286 98.321 35.719 98.316 C40.114 98.31 44.508 98.327 48.903 98.35 C52.288 98.365 55.674 98.366 59.059 98.363 C60.679 98.363 62.299 98.368 63.92 98.378 C66.186 98.391 68.452 98.384 70.719 98.372 C71.385 98.38 72.051 98.388 72.737 98.395 C76.96 98.348 79.71 97.696 83 95 C84.657 91.466 84.155 87.223 84.161 83.373 C84.166 82.61 84.171 81.847 84.176 81.061 C84.191 78.542 84.198 76.023 84.203 73.504 C84.209 71.75 84.215 69.997 84.22 68.243 C84.231 64.569 84.237 60.895 84.24 57.22 C84.246 52.515 84.27 47.81 84.298 43.104 C84.317 39.483 84.322 35.862 84.324 32.241 C84.327 30.506 84.335 28.772 84.348 27.037 C84.365 24.61 84.363 22.183 84.356 19.756 C84.366 19.042 84.375 18.327 84.384 17.591 C84.348 13.256 83.74 10.552 81 7 C78.036 5.518 75.018 5.844 71.768 5.839 C71.023 5.834 70.278 5.829 69.511 5.824 C67.041 5.809 64.571 5.802 62.102 5.797 C60.388 5.791 58.674 5.785 56.96 5.78 C53.364 5.769 49.767 5.763 46.171 5.76 C41.562 5.754 36.953 5.73 32.344 5.702 C28.802 5.683 25.261 5.678 21.72 5.676 C20.02 5.673 18.321 5.665 16.622 5.652 C14.245 5.635 11.868 5.637 9.491 5.644 C8.788 5.634 8.086 5.625 7.362 5.616 C3.321 5.65 0.798 5.968 -2 9 Z " transform="translate(92,71)" />
</svg>
