<svg xmlns="http://www.w3.org/2000/svg" width="24" height="24" viewBox="0 0 240 240" fill="currentColor" aria-hidden="true">
  <path d="M0 0 C0.929 -0.006 1.859 -0.011 2.816 -0.017 C3.834 -0.018 4.852 -0.02 5.9 -0.021 C6.974 -0.026 8.047 -0.031 9.153 -0.036 C12.098 -0.048 15.042 -0.055 17.986 -0.06 C19.827 -0.063 21.668 -0.067 23.509 -0.071 C29.272 -0.085 35.035 -0.095 40.799 -0.098 C47.445 -0.103 54.09 -0.12 60.736 -0.149 C65.877 -0.171 71.019 -0.181 76.16 -0.182 C79.229 -0.184 82.298 -0.189 85.366 -0.207 C88.792 -0.227 92.217 -0.222 95.643 -0.216 C96.654 -0.225 97.666 -0.234 98.708 -0.244 C104.079 -0.212 108.053 -0.086 112.466 3.14 C114.749 6.932 114.767 10.793 114.772 15.115 C114.78 15.797 114.789 16.479 114.797 17.181 C114.821 19.425 114.83 21.669 114.837 23.914 C114.846 25.482 114.855 27.05 114.864 28.618 C114.881 31.901 114.888 35.184 114.891 38.468 C114.897 42.663 114.934 46.858 114.98 51.053 C115.01 54.291 115.017 57.528 115.018 60.766 C115.022 62.312 115.034 63.858 115.055 65.404 C115.236 79.898 115.236 79.898 111.028 85.075 C107.533 87.458 103.308 87.264 99.216 87.254 C98.196 87.254 97.175 87.254 96.123 87.254 C95.034 87.249 93.944 87.243 92.821 87.238 C91.696 87.237 90.571 87.235 89.412 87.234 C86.435 87.23 83.458 87.22 80.481 87.209 C77.437 87.199 74.394 87.194 71.35 87.189 C65.389 87.179 59.427 87.161 53.466 87.14 C53.466 93.74 53.466 100.34 53.466 107.14 C62.706 107.14 71.946 107.14 81.466 107.14 C82.126 108.46 82.786 109.78 83.466 111.14 C80.199 114.082 78.072 114.513 73.719 114.497 C73.142 114.498 73.142 114.498 70.221 114.506 C68.966 114.494 67.712 114.481 66.458 114.469 C65.168 114.466 63.878 114.464 62.588 114.463 C59.89 114.458 57.192 114.444 54.493 114.422 C51.032 114.393 47.571 114.382 44.109 114.378 C41.448 114.374 38.787 114.364 36.126 114.352 C34.85 114.346 33.573 114.342 32.296 114.338 C30.515 114.331 28.734 114.316 26.953 114.302 C25.94 114.295 24.926 114.288 23.881 114.281 C21.466 114.14 21.466 114.14 19.466 113.14 C19.796 111.16 20.126 109.18 20.466 107.14 C29.376 107.14 38.286 107.14 47.466 107.14 C47.466 100.54 47.466 93.94 47.466 87.14 C45.952 87.156 44.439 87.172 42.879 87.188 C37.862 87.237 32.845 87.271 27.828 87.296 C24.788 87.311 21.748 87.333 18.708 87.367 C15.208 87.406 11.708 87.42 8.208 87.433 C7.666 87.441 7.666 87.441 4.921 87.48 C-0.739 87.482 -4.784 87.348 -9.534 84.14 C-13.297 79.989 -13.684 76.128 -13.68 70.729 C-13.683 70.083 -13.686 69.437 -13.69 68.772 C-13.699 66.637 -13.701 64.502 -13.702 62.367 C-13.706 60.881 -13.709 59.395 -13.712 57.909 C-13.718 54.794 -13.72 51.679 -13.72 48.563 C-13.72 44.576 -13.733 40.59 -13.75 36.603 C-13.762 33.533 -13.764 30.464 -13.763 27.394 C-13.764 25.925 -13.769 24.455 -13.776 22.986 C-13.786 20.927 -13.783 18.869 -13.777 16.811 C-13.783 16.207 -13.789 15.603 -13.794 14.981 C-13.758 10.067 -12.815 6.627 -9.597 2.89 C-6.496 0.26 -3.919 0.014 0 0 Z M-6.295 7.985 C-7.957 10.875 -7.955 13.454 -7.923 16.697 C-7.928 17.347 -7.933 17.996 -7.938 18.665 C-7.952 20.804 -7.943 22.943 -7.933 25.082 C-7.935 26.571 -7.938 28.06 -7.942 29.55 C-7.946 32.667 -7.94 35.785 -7.925 38.903 C-7.908 42.9 -7.918 46.897 -7.936 50.894 C-7.947 53.968 -7.944 57.042 -7.936 60.115 C-7.934 61.589 -7.936 63.063 -7.943 64.537 C-7.951 66.596 -7.939 68.654 -7.923 70.713 C-7.929 71.322 -7.935 71.932 -7.941 72.56 C-7.903 75.085 -7.833 76.742 -6.292 78.796 C-4.055 80.507 -2.823 80.52 -0.025 80.528 C0.899 80.538 1.823 80.548 2.775 80.558 C3.787 80.554 4.798 80.549 5.84 80.544 C6.374 80.548 6.374 80.548 9.073 80.565 C11.999 80.58 14.924 80.582 17.85 80.576 C20.293 80.573 22.736 80.579 25.179 80.585 C30.942 80.599 36.706 80.598 42.469 80.586 C48.414 80.575 54.358 80.589 60.303 80.616 C65.408 80.638 70.513 80.645 75.618 80.639 C78.666 80.635 81.714 80.638 84.763 80.655 C88.163 80.673 91.562 80.659 94.961 80.642 C95.971 80.652 96.98 80.661 98.021 80.671 C104.727 80.6 104.727 80.6 108.091 78.505 C109.879 75.43 109.967 73.354 109.967 69.799 C109.973 69.172 109.978 68.546 109.984 67.9 C109.996 65.835 109.98 63.772 109.962 61.707 C109.962 60.267 109.963 58.828 109.966 57.388 C109.968 54.373 109.955 51.358 109.932 48.342 C109.904 44.484 109.907 40.627 109.919 36.769 C109.926 33.796 109.918 30.824 109.906 27.851 C109.902 26.429 109.901 25.007 109.905 23.585 C109.908 21.593 109.891 19.603 109.87 17.611 C109.867 17.046 109.867 17.046 109.853 14.182 C109.384 10.5 109.117 8.799 106.466 6.14 C102.982 5.377 99.537 5.469 95.983 5.509 C94.905 5.502 93.827 5.495 92.716 5.488 C89.759 5.474 86.803 5.482 83.846 5.502 C80.753 5.518 77.659 5.509 74.565 5.504 C69.37 5.5 64.175 5.516 58.98 5.544 C52.973 5.576 46.966 5.576 40.959 5.558 C35.181 5.542 29.403 5.549 23.626 5.566 C21.166 5.573 18.707 5.572 16.248 5.565 C12.814 5.556 9.381 5.58 5.948 5.607 C4.926 5.6 3.903 5.594 2.85 5.587 C1.916 5.6 0.982 5.613 0.02 5.626 C-0.792 5.629 -1.604 5.631 -2.44 5.634 C-4.534 6.14 -4.534 6.14 -6.295 7.985 Z " transform="translate(54.53437805175781,102.85955810546875)" />
</svg>
