<svg xmlns="http://www.w3.org/2000/svg" width="24" height="24" viewBox="0 0 240 240" fill="currentColor" aria-hidden="true">
  <path d="M0 0 C0.706 -0.008 1.412 -0.017 2.14 -0.026 C4.469 -0.049 6.798 -0.05 9.127 -0.049 C10.748 -0.056 12.37 -0.064 13.991 -0.072 C17.387 -0.085 20.783 -0.087 24.179 -0.081 C28.531 -0.075 32.881 -0.106 37.233 -0.146 C40.58 -0.172 43.928 -0.175 47.275 -0.171 C48.88 -0.173 50.484 -0.183 52.088 -0.2 C54.332 -0.223 56.573 -0.213 58.816 -0.195 C59.478 -0.209 60.14 -0.222 60.822 -0.236 C64.4 -0.17 65.713 0.231 68.327 2.75 C70.33 6.132 70.316 8.333 70.158 12.232 C70.14 12.83 70.122 13.427 70.104 14.043 C70.057 15.503 69.985 16.962 69.908 18.42 C68.588 19.08 67.268 19.74 65.908 20.42 C62.808 17.32 64.272 11.789 63.908 7.42 C53.348 7.42 42.788 7.42 31.908 7.42 C31.908 33.16 31.908 58.9 31.908 85.42 C36.198 85.75 40.488 86.08 44.908 86.42 C44.908 88.4 44.908 90.38 44.908 92.42 C34.018 92.42 23.128 92.42 11.908 92.42 C12.238 90.44 12.568 88.46 12.908 86.42 C17.198 86.42 21.488 86.42 25.908 86.42 C25.908 60.02 25.908 33.62 25.908 6.42 C-5.092 7.42 -5.092 7.42 -6.092 8.42 C-6.325 10.269 -6.505 12.125 -6.654 13.982 C-6.738 14.994 -6.822 16.006 -6.908 17.049 C-6.969 17.831 -7.029 18.614 -7.092 19.42 C-8.967 20.045 -8.967 20.045 -11.092 20.42 C-13.092 18.42 -13.092 18.42 -13.357 16.213 C-13.303 7.068 -13.303 7.068 -11.092 3.42 C-7.699 0.094 -4.532 -0.02 0 0 Z " transform="translate(82.091796875,77.580078125)" />
</svg>
