<svg xmlns="http://www.w3.org/2000/svg" width="24" height="24" viewBox="0 0 240 240" fill="currentColor" aria-hidden="true">
  <path d="M0 0 C1.888 2.548 1.664 4.403 1.616 7.548 C1.606 8.666 1.597 9.784 1.587 10.936 C1.562 12.115 1.536 13.294 1.51 14.473 C1.495 15.664 1.482 16.855 1.469 18.046 C1.434 20.96 1.385 23.872 1.323 26.786 C-0.327 26.456 -1.977 26.126 -3.677 25.786 C-4.007 18.856 -4.337 11.926 -4.677 4.786 C-11.277 4.456 -17.877 4.126 -24.677 3.786 C-25.337 2.466 -25.997 1.146 -26.677 -0.214 C-21.144 -5.748 -6.074 -4.397 0 0 Z " transform="translate(151.677001953125,73.214111328125)" />
  <path d="M0 0 C1.014 0.006 2.029 0.012 3.074 0.018 C10.58 0.143 10.58 0.143 12.875 2.438 C12.545 3.757 12.215 5.078 11.875 6.438 C8.41 6.603 8.41 6.603 -9.125 7.438 C-9.455 14.698 -9.785 21.958 -10.125 29.438 C-11.775 29.108 -13.425 28.778 -15.125 28.438 C-15.241 24.709 -15.312 20.98 -15.375 17.25 C-15.409 16.195 -15.442 15.14 -15.477 14.053 C-15.532 9.687 -15.476 6.291 -13.805 2.227 C-9.458 -0.675 -5.095 -0.166 0 0 Z " transform="translate(67.125,70.5625)" />
  <path d="M0 0 C0.831 0.001 1.661 0.002 2.517 0.003 C4.27 0.009 6.022 0.025 7.775 0.049 C10.459 0.086 13.142 0.09 15.826 0.09 C17.53 0.1 19.234 0.111 20.938 0.125 C21.741 0.127 22.544 0.129 23.371 0.132 C23.745 0.138 23.745 0.138 25.637 0.17 C26.293 0.178 26.95 0.186 27.626 0.194 C29.765 0.515 30.831 0.968 32.402 2.461 C32.77 4.2 32.77 4.2 32.759 6.312 C32.762 7.103 32.765 7.894 32.768 8.709 C32.756 9.564 32.743 10.42 32.73 11.301 C32.729 12.179 32.727 13.057 32.725 13.961 C32.718 15.82 32.704 17.678 32.684 19.537 C32.653 22.383 32.643 25.229 32.637 28.076 C32.628 29.88 32.617 31.684 32.605 33.488 C32.603 33.915 32.603 33.915 32.593 36.074 C32.583 36.868 32.573 37.662 32.563 38.48 C32.557 39.178 32.55 39.876 32.543 40.595 C32.402 42.461 32.402 42.461 31.402 45.461 C28.826 46.32 27.353 46.597 24.729 46.638 C24.001 46.651 23.273 46.664 22.524 46.677 C22.133 46.681 22.133 46.681 20.156 46.699 C19.349 46.707 18.541 46.715 17.709 46.724 C16.002 46.737 14.295 46.748 12.588 46.756 C9.978 46.773 7.369 46.817 4.76 46.861 C3.1 46.871 1.441 46.88 -0.219 46.887 C-0.998 46.904 -1.777 46.922 -2.58 46.94 C-6.048 46.926 -8.071 46.777 -11.088 44.969 C-13.296 41.301 -13.172 38.109 -13.129 33.898 C-13.133 33.07 -13.137 32.242 -13.141 31.388 C-13.143 29.64 -13.136 27.892 -13.119 26.144 C-13.098 23.47 -13.119 20.799 -13.145 18.125 C-13.142 16.424 -13.137 14.724 -13.129 13.023 C-13.133 12.624 -13.133 12.624 -13.153 10.605 C-13.094 7.106 -12.919 4.999 -11.102 1.955 C-7.42 -0.242 -4.213 -0.076 0 0 Z M-7.598 6.461 C-7.699 8.97 -7.737 11.451 -7.73 13.961 C-7.731 14.712 -7.732 15.463 -7.733 16.236 C-7.734 17.827 -7.732 19.417 -7.728 21.008 C-7.723 23.451 -7.728 25.893 -7.734 28.336 C-7.734 29.878 -7.732 31.419 -7.73 32.961 C-7.732 33.696 -7.735 34.432 -7.737 35.189 C-7.713 40.346 -7.713 40.346 -6.598 41.461 C-4.161 41.562 -1.753 41.601 0.684 41.594 C1.412 41.595 2.141 41.596 2.892 41.597 C4.435 41.597 5.979 41.595 7.522 41.591 C9.892 41.586 12.262 41.591 14.633 41.598 C16.129 41.597 17.625 41.596 19.121 41.594 C19.835 41.596 20.548 41.598 21.283 41.6 C26.287 41.576 26.287 41.576 27.402 40.461 C27.491 37.867 27.518 35.301 27.5 32.707 C27.499 32.319 27.499 32.319 27.496 30.357 C27.49 27.871 27.478 25.385 27.465 22.898 C27.46 21.217 27.455 19.535 27.451 17.854 C27.44 13.723 27.423 9.592 27.402 5.461 C22.579 5.436 17.755 5.418 12.931 5.406 C11.289 5.401 9.646 5.394 8.004 5.385 C5.649 5.373 3.293 5.368 0.938 5.363 C0.199 5.358 -0.54 5.353 -1.301 5.348 C-6.484 5.347 -6.484 5.347 -7.598 6.461 Z " transform="translate(92.59765625,99.5390625)" />
  <path d="M0 0 C1.47 0.703 1.47 0.703 3 2 C3.417 4.139 3.417 4.139 3.477 6.754 C3.508 7.69 3.538 8.627 3.57 9.592 C3.588 10.572 3.606 11.552 3.625 12.562 C3.676 14.501 3.73 16.44 3.789 18.379 C3.807 19.241 3.824 20.103 3.842 20.99 C4 23 4 23 5 24 C6.559 24.157 8.125 24.251 9.691 24.316 C10.636 24.358 11.58 24.4 12.553 24.443 C13.049 24.463 13.049 24.463 15.562 24.562 C16.56 24.606 17.557 24.649 18.584 24.693 C21.056 24.8 23.528 24.902 26 25 C25.67 26.65 25.34 28.3 25 30 C21.25 30.116 17.501 30.187 13.75 30.25 C12.687 30.284 11.623 30.317 10.527 30.352 C9.503 30.364 8.478 30.377 7.422 30.391 C6.479 30.412 5.537 30.433 4.565 30.454 C1.155 29.85 0.023 28.782 -2 26 C-2.486 23.375 -2.486 23.375 -2.461 20.43 C-2.457 19.369 -2.453 18.308 -2.449 17.215 C-2.425 16.113 -2.4 15.011 -2.375 13.875 C-2.374 12.765 -2.372 11.655 -2.371 10.512 C-2.281 2.281 -2.281 2.281 0 0 Z " transform="translate(54,144)" />
  <path d="M0 0 C1.473 0.653 1.473 0.653 3 2 C3.578 5.539 3.473 9.086 3.446 12.667 C3.438 14.428 3.466 16.186 3.498 17.947 C3.497 19.057 3.497 20.166 3.496 21.309 C3.497 21.818 3.497 21.818 3.502 24.396 C3 27 3 27 1.308 28.837 C-1.476 30.24 -3.313 30.345 -6.422 30.293 C-6.934 30.288 -6.934 30.288 -9.527 30.264 C-10.591 30.239 -11.654 30.213 -12.75 30.188 C-13.289 30.181 -13.289 30.181 -16.02 30.146 C-18.68 30.111 -21.34 30.062 -24 30 C-24.562 28.062 -24.562 28.062 -25 26 C-23.349 24.349 -21.363 24.775 -19.09 24.684 C-18.1 24.642 -17.111 24.6 -16.092 24.557 C-15.051 24.517 -14.01 24.478 -12.938 24.438 C-11.893 24.394 -10.848 24.351 -9.771 24.307 C-7.181 24.2 -4.591 24.098 -2 24 C-2.01 23.344 -2.021 22.688 -2.032 22.012 C-2.073 19.05 -2.099 16.088 -2.125 13.125 C-2.142 12.092 -2.159 11.06 -2.176 9.996 C-2.182 9.01 -2.189 8.024 -2.195 7.008 C-2.206 6.097 -2.216 5.185 -2.227 4.247 C-2 2 -2 2 0 0 Z " transform="translate(150,144)" />
</svg>
