<svg xmlns="http://www.w3.org/2000/svg" height="24" viewBox="0 -960 960 960" width="24"><path d="M480-320q-66 0-113-47t-47-113q0-66 47-113t113-47q66 0 113 47t47 113q0 66-47 113t-113 47Zm0-80q33 0 56.5-23.5T560-480q0-33-23.5-56.5T480-560q-33 0-56.5 23.5T400-480q0 33 23.5 56.5T480-400Zm0 320q-17 0-28.5-11.5T440-120v-44q-118-14-197-93t-93-197h-44q-17 0-28.5-11.5T66-494q0-17 11.5-28.5T106-534h44q14-118 93-197t197-93v-44q0-17 11.5-28.5T480-908q17 0 28.5 11.5T520-868v44q118 14 197 93t93 197h44q17 0 28.5 11.5T894-494q0 17-11.5 28.5T854-454h-44q-14 118-93 197t-197 93v44q0 17-11.5 28.5T480-80Zm0-164q98 0 167-69t69-167q0-98-69-167t-167-69q-98 0-167 69t-69 167q0 98 69 167t167 69Zm0-236Z"/></svg>
